<svg width="36" height="36" viewBox="0 0 36 36" fill="none" xmlns="http://www.w3.org/2000/svg">
<mask id="mask0_98_162" style="mask-type:alpha" maskUnits="userSpaceOnUse" x="0" y="0" width="36" height="36">
<rect width="36" height="36" fill="#D9D9D9"/>
</mask>
<g mask="url(#mask0_98_162)">
<path d="M10.125 32.9992C9 32.9992 8.03125 32.618 7.21875 31.8555C6.40625 31.093 6 30.1492 6 29.0242V8.09922C6 7.14922 6.29375 6.29922 6.88125 5.54922C7.46875 4.79922 8.2375 4.32422 9.1875 4.12422L24 1.19922V25.1992L9.7875 28.0492C9.5625 28.0992 9.375 28.218 9.225 28.4055C9.075 28.593 9 28.7992 9 29.0242C9 29.2992 9.1125 29.5305 9.3375 29.718C9.5625 29.9055 9.825 29.9992 10.125 29.9992H27V5.99922H30V32.9992H10.125ZM13.5 24.2617L21 22.7992V4.87422L13.5 6.33672V24.2617ZM10.5 24.8617V6.93672L9.9375 7.04922C9.6625 7.09922 9.4375 7.21797 9.2625 7.40547C9.0875 7.59297 9 7.82422 9 8.09922V25.2367C9.125 25.1867 9.25625 25.143 9.39375 25.1055C9.53125 25.068 9.6625 25.0367 9.7875 25.0117L10.5 24.8617Z" fill="#0169AE"/>
</g>
</svg>
