<svg width="36" height="36" viewBox="0 0 36 36" fill="none" xmlns="http://www.w3.org/2000/svg">
<mask id="mask0_98_184" style="mask-type:alpha" maskUnits="userSpaceOnUse" x="0" y="0" width="36" height="36">
<rect width="36" height="36" fill="#D9D9D9"/>
</mask>
<g mask="url(#mask0_98_184)">
<path d="M7.5 34.5V33C7.5 29.525 8.225 26.7063 9.675 24.5438C11.125 22.3813 13.125 20.2 15.675 18C13.125 15.8 11.125 13.6188 9.675 11.4563C8.225 9.29375 7.5 6.475 7.5 3V1.5H10.5V3C10.5 3.275 10.5063 3.53125 10.5188 3.76875C10.5312 4.00625 10.55 4.25 10.575 4.5H25.425C25.45 4.25 25.4688 4.00625 25.4813 3.76875C25.4937 3.53125 25.5 3.275 25.5 3V1.5H28.5V3C28.5 6.475 27.775 9.29375 26.325 11.4563C24.875 13.6188 22.875 15.8 20.325 18C22.875 20.2 24.875 22.3813 26.325 24.5438C27.775 26.7063 28.5 29.525 28.5 33V34.5H25.5V33C25.5 32.725 25.4937 32.4688 25.4813 32.2313C25.4688 31.9938 25.45 31.75 25.425 31.5H10.575C10.55 31.75 10.5312 31.9938 10.5188 32.2313C10.5063 32.4688 10.5 32.725 10.5 33V34.5H7.5ZM12.675 10.5H23.325C23.65 10.025 23.9312 9.55 24.1688 9.075C24.4062 8.6 24.625 8.075 24.825 7.5H11.175C11.375 8.05 11.5938 8.56875 11.8313 9.05625C12.0687 9.54375 12.35 10.025 12.675 10.5ZM18 16.05C18.5 15.625 18.9875 15.2 19.4625 14.775C19.9375 14.35 20.3875 13.925 20.8125 13.5H15.1875C15.6125 13.925 16.0625 14.35 16.5375 14.775C17.0125 15.2 17.5 15.625 18 16.05ZM15.1875 22.5H20.8125C20.3875 22.075 19.9375 21.65 19.4625 21.225C18.9875 20.8 18.5 20.375 18 19.95C17.5 20.375 17.0125 20.8 16.5375 21.225C16.0625 21.65 15.6125 22.075 15.1875 22.5ZM11.175 28.5H24.825C24.625 27.95 24.4062 27.4312 24.1688 26.9437C23.9312 26.4562 23.65 25.975 23.325 25.5H12.675C12.35 25.975 12.0687 26.45 11.8313 26.925C11.5938 27.4 11.375 27.925 11.175 28.5Z" fill="#0169AE"/>
</g>
</svg>
