<svg width="36" height="36" viewBox="0 0 36 36" fill="none" xmlns="http://www.w3.org/2000/svg">
<mask id="mask0_98_192" style="mask-type:alpha" maskUnits="userSpaceOnUse" x="0" y="0" width="36" height="36">
<rect width="36" height="36" fill="#D9D9D9"/>
</mask>
<g mask="url(#mask0_98_192)">
<path d="M21 14.85V12.3C21.825 11.95 22.6688 11.6875 23.5312 11.5125C24.3937 11.3375 25.3 11.25 26.25 11.25C26.9 11.25 27.5375 11.3 28.1625 11.4C28.7875 11.5 29.4 11.625 30 11.775V14.175C29.4 13.95 28.7938 13.7813 28.1813 13.6688C27.5688 13.5563 26.925 13.5 26.25 13.5C25.3 13.5 24.3875 13.6188 23.5125 13.8563C22.6375 14.0938 21.8 14.425 21 14.85ZM21 23.1V20.55C21.825 20.2 22.6688 19.9375 23.5312 19.7625C24.3937 19.5875 25.3 19.5 26.25 19.5C26.9 19.5 27.5375 19.55 28.1625 19.65C28.7875 19.75 29.4 19.875 30 20.025V22.425C29.4 22.2 28.7938 22.0312 28.1813 21.9188C27.5688 21.8063 26.925 21.75 26.25 21.75C25.3 21.75 24.3875 21.8625 23.5125 22.0875C22.6375 22.3125 21.8 22.65 21 23.1ZM21 18.975V16.425C21.825 16.075 22.6688 15.8125 23.5312 15.6375C24.3937 15.4625 25.3 15.375 26.25 15.375C26.9 15.375 27.5375 15.425 28.1625 15.525C28.7875 15.625 29.4 15.75 30 15.9V18.3C29.4 18.075 28.7938 17.9062 28.1813 17.7938C27.5688 17.6813 26.925 17.625 26.25 17.625C25.3 17.625 24.3875 17.7438 23.5125 17.9813C22.6375 18.2188 21.8 18.55 21 18.975ZM9.75 24C10.925 24 12.0687 24.1313 13.1812 24.3937C14.2937 24.6562 15.4 25.05 16.5 25.575V10.8C15.475 10.2 14.3875 9.75 13.2375 9.45C12.0875 9.15 10.925 9 9.75 9C8.85 9 7.95625 9.0875 7.06875 9.2625C6.18125 9.4375 5.325 9.7 4.5 10.05V24.9C5.375 24.6 6.24375 24.375 7.10625 24.225C7.96875 24.075 8.85 24 9.75 24ZM19.5 25.575C20.6 25.05 21.7063 24.6562 22.8188 24.3937C23.9313 24.1313 25.075 24 26.25 24C27.15 24 28.0313 24.075 28.8938 24.225C29.7563 24.375 30.625 24.6 31.5 24.9V10.05C30.675 9.7 29.8188 9.4375 28.9313 9.2625C28.0438 9.0875 27.15 9 26.25 9C25.075 9 23.9125 9.15 22.7625 9.45C21.6125 9.75 20.525 10.2 19.5 10.8V25.575ZM18 30C16.8 29.05 15.5 28.3125 14.1 27.7875C12.7 27.2625 11.25 27 9.75 27C8.7 27 7.66875 27.1375 6.65625 27.4125C5.64375 27.6875 4.675 28.075 3.75 28.575C3.225 28.85 2.71875 28.8375 2.23125 28.5375C1.74375 28.2375 1.5 27.8 1.5 27.225V9.15C1.5 8.875 1.56875 8.6125 1.70625 8.3625C1.84375 8.1125 2.05 7.925 2.325 7.8C3.475 7.2 4.675 6.75 5.925 6.45C7.175 6.15 8.45 6 9.75 6C11.2 6 12.6188 6.1875 14.0063 6.5625C15.3938 6.9375 16.725 7.5 18 8.25C19.275 7.5 20.6063 6.9375 21.9938 6.5625C23.3813 6.1875 24.8 6 26.25 6C27.55 6 28.825 6.15 30.075 6.45C31.325 6.75 32.525 7.2 33.675 7.8C33.95 7.925 34.1562 8.1125 34.2938 8.3625C34.4313 8.6125 34.5 8.875 34.5 9.15V27.225C34.5 27.8 34.2563 28.2375 33.7688 28.5375C33.2813 28.8375 32.775 28.85 32.25 28.575C31.325 28.075 30.3563 27.6875 29.3438 27.4125C28.3312 27.1375 27.3 27 26.25 27C24.75 27 23.3 27.2625 21.9 27.7875C20.5 28.3125 19.2 29.05 18 30Z" fill="#0169AE"/>
</g>
</svg>
