<svg width="36" height="36" viewBox="0 0 36 36" fill="none" xmlns="http://www.w3.org/2000/svg">
<mask id="mask0_98_176" style="mask-type:alpha" maskUnits="userSpaceOnUse" x="0" y="0" width="36" height="36">
<rect width="36" height="36" fill="#D9D9D9"/>
</mask>
<g mask="url(#mask0_98_176)">
<path d="M9 33V26.55C7.575 25.25 6.46875 23.7313 5.68125 21.9938C4.89375 20.2563 4.5 18.425 4.5 16.5C4.5 12.75 5.8125 9.5625 8.4375 6.9375C11.0625 4.3125 14.25 3 18 3C21.125 3 23.8938 3.91875 26.3063 5.75625C28.7188 7.59375 30.2875 9.9875 31.0125 12.9375L32.9625 20.625C33.0875 21.1 33 21.5312 32.7 21.9188C32.4 22.3062 32 22.5 31.5 22.5H28.5V27C28.5 27.825 28.2063 28.5312 27.6188 29.1188C27.0312 29.7063 26.325 30 25.5 30H22.5V33H19.5V27H25.5V19.5H29.55L28.125 13.6875C27.55 11.4125 26.325 9.5625 24.45 8.1375C22.575 6.7125 20.425 6 18 6C15.1 6 12.625 7.0125 10.575 9.0375C8.525 11.0625 7.5 13.525 7.5 16.425C7.5 17.925 7.80625 19.35 8.41875 20.7C9.03125 22.05 9.9 23.25 11.025 24.3L12 25.2V33H9ZM16.5 22.5H19.5L19.725 20.625C19.925 20.55 20.1062 20.4625 20.2687 20.3625C20.4312 20.2625 20.575 20.15 20.7 20.025L22.425 20.775L23.925 18.225L22.425 17.1C22.475 16.9 22.5 16.7 22.5 16.5C22.5 16.3 22.475 16.1 22.425 15.9L23.925 14.775L22.425 12.225L20.7 12.975C20.575 12.85 20.4312 12.7375 20.2687 12.6375C20.1062 12.5375 19.925 12.45 19.725 12.375L19.5 10.5H16.5L16.275 12.375C16.075 12.45 15.8938 12.5375 15.7313 12.6375C15.5688 12.7375 15.425 12.85 15.3 12.975L13.575 12.225L12.075 14.775L13.575 15.9C13.525 16.1 13.5 16.3 13.5 16.5C13.5 16.7 13.525 16.9 13.575 17.1L12.075 18.225L13.575 20.775L15.3 20.025C15.425 20.15 15.5688 20.2625 15.7313 20.3625C15.8938 20.4625 16.075 20.55 16.275 20.625L16.5 22.5ZM16.4062 18.0938C15.9688 17.6562 15.75 17.125 15.75 16.5C15.75 15.875 15.9688 15.3438 16.4062 14.9062C16.8438 14.4688 17.375 14.25 18 14.25C18.625 14.25 19.1562 14.4688 19.5938 14.9062C20.0312 15.3438 20.25 15.875 20.25 16.5C20.25 17.125 20.0312 17.6562 19.5938 18.0938C19.1562 18.5312 18.625 18.75 18 18.75C17.375 18.75 16.8438 18.5312 16.4062 18.0938Z" fill="#0169AE"/>
</g>
</svg>
