<svg preserveAspectRatio="none" width="100%" height="100%" overflow="visible" style="display: block;" viewBox="0 0 22 22" fill="none" xmlns="http://www.w3.org/2000/svg">
<g id="book_4">
<mask id="mask0_2186_3191" style="mask-type:alpha" maskUnits="userSpaceOnUse" x="0" y="0" width="22" height="22">
<rect id="Bounding box" width="22" height="22" fill="var(--fill-0, #D9D9D9)"/>
</mask>
<g mask="url(#mask0_2186_3191)">
<path id="book_4_2" d="M5.60587 19.7083C4.93992 19.7083 4.3738 19.477 3.90752 19.0142C3.4414 18.5514 3.20833 17.9895 3.20833 17.3284V4.68921C3.20833 4.02325 3.4414 3.45713 3.90752 2.99085C4.3738 2.52473 4.93992 2.29167 5.60587 2.29167H15.4071V16.3238H5.60587C5.32262 16.3238 5.08139 16.4199 4.88217 16.6121C4.68294 16.8044 4.58333 17.0427 4.58333 17.3271C4.58333 17.6112 4.68294 17.85 4.88217 18.0434C5.08139 18.2367 5.32262 18.3333 5.60587 18.3333H17.4167V4.125H18.7917V19.7083H5.60587ZM7.9679 14.9488H14.0321V3.66667H7.9679V14.9488ZM6.5929 14.9488V3.66667H5.60587C5.31606 3.66667 5.07322 3.76628 4.87735 3.9655C4.68134 4.16472 4.58333 4.40596 4.58333 4.68921V15.2148C4.74192 15.1397 4.90401 15.0765 5.06962 15.0253C5.23524 14.9743 5.41399 14.9488 5.60587 14.9488H6.5929Z" fill="var(--fill-0, #155DFC)"/>
</g>
</g>
</svg>
