<svg preserveAspectRatio="none" width="100%" height="100%" overflow="visible" style="display: block;" viewBox="0 0 22 22" fill="none" xmlns="http://www.w3.org/2000/svg">
<g id="category_search">
<mask id="mask0_2186_3227" style="mask-type:alpha" maskUnits="userSpaceOnUse" x="0" y="0" width="22" height="22">
<rect id="Bounding box" width="22" height="22" fill="var(--fill-0, #D9D9D9)"/>
</mask>
<g mask="url(#mask0_2186_3227)">
<path id="category_search_2" d="M2.29167 18.3335V11.7054H8.91985V18.3335H2.29167ZM3.66667 16.9585H7.54485V13.0804H3.66667V16.9585ZM5.7821 8.70854L10.1892 1.48108L14.5961 8.70854H5.7821ZM8.2076 7.33354H12.1706L10.1892 4.14629L8.2076 7.33354ZM19.7947 20.5264L17.3832 18.1149C17.0799 18.3346 16.747 18.5024 16.3845 18.6182C16.022 18.734 15.6374 18.7919 15.2309 18.7919C14.179 18.7919 13.2873 18.426 12.5558 17.6944C11.8242 16.9629 11.4583 16.0712 11.4583 15.0193C11.4583 13.9676 11.8242 13.0759 12.5558 12.3443C13.2873 11.6128 14.179 11.247 15.2309 11.247C16.2826 11.247 17.1743 11.6128 17.9059 12.3443C18.6374 13.0759 19.0032 13.9676 19.0032 15.0193C19.0032 15.4166 18.9453 15.795 18.8295 16.1546C18.7138 16.5143 18.5537 16.8457 18.3491 17.149L20.7607 19.5605L19.7947 20.5264ZM15.2304 17.4169C15.9017 17.4169 16.4692 17.1851 16.9329 16.7216C17.3964 16.2582 17.6282 15.6909 17.6282 15.0198C17.6282 14.3485 17.3965 13.781 16.9331 13.3173C16.4696 12.8538 15.9023 12.622 15.2311 12.622C14.5598 12.622 13.9924 12.8537 13.5289 13.3171C13.0652 13.7806 12.8333 14.3479 12.8333 15.0191C12.8333 15.6904 13.0651 16.2578 13.5286 16.7214C13.992 17.185 14.5593 17.4169 15.2304 17.4169Z" fill="var(--fill-0, #155DFC)"/>
</g>
</g>
</svg>
