<svg preserveAspectRatio="none" width="100%" height="100%" overflow="visible" style="display: block;" viewBox="0 0 22 22" fill="none" xmlns="http://www.w3.org/2000/svg">
<g id="code_blocks">
<mask id="mask0_2186_3221" style="mask-type:alpha" maskUnits="userSpaceOnUse" x="0" y="0" width="22" height="22">
<rect id="Bounding box" width="22" height="22" fill="var(--fill-0, #D9D9D9)"/>
</mask>
<g mask="url(#mask0_2186_3221)">
<path id="code_blocks_2" d="M8.8 13.9826L9.76594 13.0025L7.76348 11L9.75723 9.00625L8.79129 8.0261L5.8174 11L8.8 13.9826ZM13.2 13.9826L16.1826 11L13.2 8.0174L12.2341 8.99754L14.2365 11L12.2341 13.0025L13.2 13.9826ZM4.86544 18.7917C4.40237 18.7917 4.01042 18.6312 3.68958 18.3104C3.36875 17.9896 3.20833 17.5976 3.20833 17.1346V4.86544C3.20833 4.40237 3.36875 4.01042 3.68958 3.68958C4.01042 3.36875 4.40237 3.20833 4.86544 3.20833H17.1346C17.5976 3.20833 17.9896 3.36875 18.3104 3.68958C18.6312 4.01042 18.7917 4.40237 18.7917 4.86544V17.1346C18.7917 17.5976 18.6312 17.9896 18.3104 18.3104C17.9896 18.6312 17.5976 18.7917 17.1346 18.7917H4.86544ZM4.86544 17.4167H17.1346C17.2051 17.4167 17.2698 17.3873 17.3284 17.3284C17.3873 17.2698 17.4167 17.2051 17.4167 17.1346V4.86544C17.4167 4.79485 17.3873 4.73023 17.3284 4.67156C17.2698 4.61274 17.2051 4.58333 17.1346 4.58333H4.86544C4.79485 4.58333 4.73023 4.61274 4.67156 4.67156C4.61274 4.73023 4.58333 4.79485 4.58333 4.86544V17.1346C4.58333 17.2051 4.61274 17.2698 4.67156 17.3284C4.73023 17.3873 4.79485 17.4167 4.86544 17.4167Z" fill="var(--fill-0, #155DFC)"/>
</g>
</g>
</svg>
