<svg preserveAspectRatio="none" width="100%" height="100%" overflow="visible" style="display: block;" viewBox="0 0 15.9961 15.9961" fill="none" xmlns="http://www.w3.org/2000/svg">
<g id="Icon" clip-path="url(#clip0_2186_3235)">
<path id="Vector" d="M8.55124 1.45298C8.37758 1.37376 8.18893 1.33277 7.99805 1.33277C7.80717 1.33277 7.61851 1.37376 7.44485 1.45298L1.73291 4.05234C1.61464 4.10449 1.51408 4.18991 1.44349 4.29819C1.3729 4.40647 1.33531 4.53294 1.33531 4.66219C1.33531 4.79145 1.3729 4.91792 1.44349 5.0262C1.51408 5.13448 1.61464 5.2199 1.73291 5.27205L7.45151 7.87808C7.62518 7.95729 7.81383 7.99829 8.00471 7.99829C8.19559 7.99829 8.38424 7.95729 8.55791 7.87808L14.2765 5.27871C14.3948 5.22656 14.4953 5.14115 14.5659 5.03287C14.6365 4.92459 14.6741 4.79812 14.6741 4.66886C14.6741 4.5396 14.6365 4.41313 14.5659 4.30485C14.4953 4.19657 14.3948 4.11116 14.2765 4.05901L8.55124 1.45298Z" stroke="var(--stroke-0, #1447E6)" stroke-width="1.33301" stroke-linecap="round" stroke-linejoin="round"/>
<path id="Vector_2" d="M1.33301 7.99805C1.33269 8.12553 1.36894 8.25042 1.43746 8.35793C1.50598 8.46543 1.60389 8.55102 1.71958 8.60457L7.45151 11.2106C7.62427 11.2888 7.81173 11.3293 8.00138 11.3293C8.19102 11.3293 8.37849 11.2888 8.55124 11.2106L14.2698 8.61123C14.3878 8.5582 14.4878 8.47199 14.5576 8.36311C14.6275 8.25423 14.6641 8.12739 14.6631 7.99805" stroke="var(--stroke-0, #1447E6)" stroke-width="1.33301" stroke-linecap="round" stroke-linejoin="round"/>
<path id="Vector_3" d="M1.33301 11.3306C1.33269 11.458 1.36894 11.5829 1.43746 11.6904C1.50598 11.7979 1.60389 11.8835 1.71958 11.9371L7.45151 14.5431C7.62427 14.6213 7.81173 14.6618 8.00138 14.6618C8.19102 14.6618 8.37849 14.6213 8.55124 14.5431L14.2698 11.9438C14.3878 11.8907 14.4878 11.8045 14.5576 11.6956C14.6275 11.5868 14.6641 11.4599 14.6631 11.3306" stroke="var(--stroke-0, #1447E6)" stroke-width="1.33301" stroke-linecap="round" stroke-linejoin="round"/>
</g>
<defs>
<clipPath id="clip0_2186_3235">
<rect width="15.9961" height="15.9961" fill="white"/>
</clipPath>
</defs>
</svg>
