<svg width="16" height="16" viewBox="0 0 16 16" fill="none" xmlns="http://www.w3.org/2000/svg">
<path d="M13.2578 8.35399L14.1618 9.15899C14.3287 9.2983 14.4403 9.49277 14.4762 9.70721C14.5122 9.92164 14.4702 10.1419 14.3578 10.328L13.2678 12.19C13.1832 12.3325 13.0625 12.4502 12.9178 12.531C12.7714 12.612 12.6071 12.655 12.4398 12.656C12.336 12.6566 12.2328 12.6411 12.1338 12.61L10.9768 12.228C10.7741 12.358 10.5635 12.4743 10.3448 12.577L10.1018 13.75C10.0568 13.9658 9.9367 14.1586 9.76281 14.294C9.58671 14.4318 9.3684 14.5046 9.14481 14.5H6.88781C6.66422 14.5046 6.4459 14.4318 6.26981 14.294C6.09629 14.1584 5.97651 13.9656 5.93181 13.75L5.68781 12.577C5.47201 12.4729 5.26263 12.3561 5.06081 12.227L3.89981 12.61C3.80081 12.6411 3.69758 12.6566 3.59381 12.656C3.42687 12.6548 3.26288 12.6118 3.11681 12.531C2.97225 12.4504 2.85151 12.3332 2.76681 12.191L1.63781 10.328C1.52044 10.1402 1.47559 9.916 1.51167 9.69748C1.54775 9.47897 1.66229 9.28111 1.83381 9.14099L2.73681 7.99999V7.64599L1.83281 6.84099C1.66587 6.70169 1.55433 6.50722 1.51838 6.29278C1.48242 6.07835 1.52444 5.85813 1.63681 5.67199L2.76581 3.80999C2.85037 3.66746 2.97112 3.54982 3.11581 3.46899C3.26188 3.38816 3.42587 3.34519 3.59281 3.34399C3.69564 3.33751 3.79886 3.34695 3.89881 3.37199L5.03681 3.77199C5.24014 3.64199 5.45081 3.52566 5.66881 3.42299L5.91281 2.24999C5.95751 2.03436 6.07729 1.84159 6.25081 1.70599C6.4269 1.56814 6.64522 1.49537 6.86881 1.49999H9.10681C9.3304 1.49537 9.54872 1.56814 9.72481 1.70599C9.89981 1.84299 10.0198 2.03599 10.0628 2.24999L10.3068 3.42299C10.5235 3.52633 10.7325 3.64299 10.9338 3.77299L12.0958 3.39099C12.2248 3.34904 12.361 3.33431 12.496 3.34774C12.6309 3.36116 12.7616 3.40245 12.8798 3.46899C13.0248 3.55099 13.1448 3.66899 13.2298 3.80899L14.3578 5.67199C14.4768 5.85822 14.5239 6.08136 14.4904 6.29978C14.4569 6.5182 14.3451 6.71697 14.1758 6.85899L13.2578 7.64099V8.35399Z" stroke="#777777" stroke-width="1.1875"/>
<path d="M10.5 8C10.5 8.66304 10.2366 9.29893 9.76777 9.76777C9.29893 10.2366 8.66304 10.5 8 10.5C7.33696 10.5 6.70107 10.2366 6.23223 9.76777C5.76339 9.29893 5.5 8.66304 5.5 8C5.5 7.33696 5.76339 6.70107 6.23223 6.23223C6.70107 5.76339 7.33696 5.5 8 5.5C8.66304 5.5 9.29893 5.76339 9.76777 6.23223C10.2366 6.70107 10.5 7.33696 10.5 8Z" stroke="#777777" stroke-width="1.1875"/>
</svg>
