<svg width="16" height="16" viewBox="0 0 16 16" fill="none" xmlns="http://www.w3.org/2000/svg">
<g clip-path="url(#clip0_2808_3464)">
<path d="M8.00016 13.3333C5.06016 13.3333 2.66683 10.94 2.66683 8.00001C2.66683 5.06001 5.06016 2.66668 8.00016 2.66668C10.9402 2.66668 13.3335 5.06001 13.3335 8.00001C13.3335 10.94 10.9402 13.3333 8.00016 13.3333ZM8.00016 14.6667C11.6802 14.6667 14.6668 11.68 14.6668 8.00001C14.6668 4.32001 11.6802 1.33334 8.00016 1.33334C4.32016 1.33334 1.3335 4.32001 1.3335 8.00001C1.3335 11.68 4.32016 14.6667 8.00016 14.6667ZM7.3335 8.00001V10C7.3335 10.3667 7.6335 10.6667 8.00016 10.6667C8.36683 10.6667 8.66683 10.3667 8.66683 10V8.00001H9.86016C10.1602 8.00001 10.3068 7.64001 10.0935 7.43334L8.2335 5.57334C8.10016 5.44001 7.8935 5.44001 7.76016 5.57334L5.90016 7.43334C5.6935 7.64001 5.84016 8.00001 6.14016 8.00001H7.3335Z" fill="#777777"/>
</g>
<defs>
<clipPath id="clip0_2808_3464">
<rect width="16" height="16" fill="white"/>
</clipPath>
</defs>
</svg>
