<svg width="24" height="18" viewBox="0 0 24 18" fill="none" xmlns="http://www.w3.org/2000/svg">
<path d="M3.06641 17.9785C2.04427 17.9785 1.27604 17.7246 0.761719 17.2168C0.253906 16.7155 0 15.9603 0 14.9512V3.02734C0 2.01823 0.253906 1.26302 0.761719 0.761719C1.27604 0.253906 2.04427 0 3.06641 0H19.9609C20.9896 0 21.7578 0.253906 22.2656 0.761719C22.7734 1.26302 23.0273 2.01823 23.0273 3.02734V14.9512C23.0273 15.9603 22.7734 16.7155 22.2656 17.2168C21.7578 17.7246 20.9896 17.9785 19.9609 17.9785H3.06641ZM3.08594 16.4062H19.9414C20.4232 16.4062 20.7943 16.2793 21.0547 16.0254C21.3216 15.765 21.4551 15.3809 21.4551 14.873V3.10547C21.4551 2.59766 21.3216 2.2168 21.0547 1.96289C20.7943 1.70247 20.4232 1.57227 19.9414 1.57227H3.08594C2.59766 1.57227 2.22331 1.70247 1.96289 1.96289C1.70247 2.2168 1.57227 2.59766 1.57227 3.10547V14.873C1.57227 15.3809 1.70247 15.765 1.96289 16.0254C2.22331 16.2793 2.59766 16.4062 3.08594 16.4062ZM7.44141 16.709V1.2793H8.97461V16.709H7.44141ZM5.56641 5.19531H3.4668C3.32357 5.19531 3.19661 5.13997 3.08594 5.0293C2.97526 4.91211 2.91992 4.78516 2.91992 4.64844C2.91992 4.4987 2.97526 4.37174 3.08594 4.26758C3.19661 4.1569 3.32357 4.10156 3.4668 4.10156H5.56641C5.70964 4.10156 5.83659 4.1569 5.94727 4.26758C6.06445 4.37174 6.12305 4.4987 6.12305 4.64844C6.12305 4.78516 6.06445 4.91211 5.94727 5.0293C5.83659 5.13997 5.70964 5.19531 5.56641 5.19531ZM5.56641 7.72461H3.4668C3.32357 7.72461 3.19661 7.66927 3.08594 7.55859C2.97526 7.44792 2.91992 7.31771 2.91992 7.16797C2.91992 7.02474 2.97526 6.90104 3.08594 6.79688C3.19661 6.6862 3.32357 6.63086 3.4668 6.63086H5.56641C5.70964 6.63086 5.83659 6.6862 5.94727 6.79688C6.06445 6.90104 6.12305 7.02474 6.12305 7.16797C6.12305 7.31771 6.06445 7.44792 5.94727 7.55859C5.83659 7.66927 5.70964 7.72461 5.56641 7.72461ZM5.56641 10.2441H3.4668C3.32357 10.2441 3.19661 10.1921 3.08594 10.0879C2.97526 9.97721 2.91992 9.85026 2.91992 9.70703C2.91992 9.55729 2.97526 9.43034 3.08594 9.32617C3.19661 9.21549 3.32357 9.16016 3.4668 9.16016H5.56641C5.70964 9.16016 5.83659 9.21549 5.94727 9.32617C6.06445 9.43034 6.12305 9.55729 6.12305 9.70703C6.12305 9.85026 6.06445 9.97721 5.94727 10.0879C5.83659 10.1921 5.70964 10.2441 5.56641 10.2441Z" fill="#646464"/>
</svg>
