<svg width="64" height="64" viewBox="0 0 64 64" fill="none" xmlns="http://www.w3.org/2000/svg">
<path d="M14.666 60.1539V58.1539C14.666 51.9144 16.0506 46.9819 18.82 43.3566C21.5893 39.7308 25.2166 35.9453 29.702 31.9999C25.1993 28.0546 21.5633 24.2691 18.794 20.6433C16.0251 17.0179 14.6406 12.0855 14.6406 5.84595V3.84595H17.6573V5.84595C17.6573 6.54017 17.6777 7.19661 17.7186 7.81528C17.7591 8.43439 17.8286 9.04306 17.9273 9.64128H46.0493C46.1435 9.04306 46.21 8.43439 46.2486 7.81528C46.2873 7.19661 46.3066 6.54017 46.3066 5.84595V3.84595H49.3326V5.84595C49.3326 12.0855 47.948 17.0179 45.1786 20.6433C42.4093 24.2691 38.782 28.0546 34.2966 31.9999C38.782 35.9279 42.4093 39.7091 45.1786 43.3433C47.948 46.9775 49.3326 51.9144 49.3326 58.1539V60.1539H46.316V58.1539C46.316 57.4597 46.2955 56.8033 46.2546 56.1846C46.2137 55.5655 46.144 54.9568 46.0453 54.3586H17.9493C17.8551 54.9568 17.7886 55.5655 17.75 56.1846C17.7113 56.8033 17.692 57.4597 17.692 58.1539V60.1539H14.666ZM22.0506 19.9999H41.9273C42.7375 18.8924 43.4366 17.7386 44.0246 16.5386C44.6126 15.3386 45.1015 14.0479 45.4913 12.6666H18.5073C18.8797 14.0675 19.3584 15.3644 19.9433 16.5573C20.5282 17.7502 21.2306 18.8977 22.0506 19.9999ZM31.9993 30.0153C33.4131 28.7855 34.7417 27.6064 35.9853 26.4779C37.2288 25.3491 38.384 24.1984 39.4506 23.0259H24.5226C25.5848 24.2042 26.7366 25.3577 27.978 26.4866C29.2197 27.6151 30.5602 28.7913 31.9993 30.0153ZM24.548 40.9739H39.4506C38.384 39.8015 37.2288 38.6508 35.9853 37.5219C34.7417 36.3935 33.4131 35.2144 31.9993 33.9846C30.5855 35.2144 29.2568 36.3935 28.0133 37.5219C26.7697 38.6508 25.6146 39.8015 24.548 40.9739ZM18.5326 51.3333H45.4913C45.1015 49.9351 44.6144 48.6391 44.03 47.4453C43.4451 46.2515 42.7426 45.1031 41.9226 43.9999H22.076C21.2631 45.1017 20.5624 46.2542 19.974 47.4573C19.386 48.6599 18.9055 49.9519 18.5326 51.3333Z" fill="#BDD2FF"/>
</svg>
