<svg width="64" height="64" viewBox="0 0 64 64" fill="none" xmlns="http://www.w3.org/2000/svg">
<path d="M48 21.333C52.4183 21.333 56 17.7513 56 13.333C56 8.91473 52.4183 5.33301 48 5.33301C43.5817 5.33301 40 8.91473 40 13.333C40 17.7513 43.5817 21.333 48 21.333Z" stroke="#BDD2FF" stroke-width="3" stroke-linecap="round" stroke-linejoin="round"/>
<path d="M16 40C20.4183 40 24 36.4183 24 32C24 27.5817 20.4183 24 16 24C11.5817 24 8 27.5817 8 32C8 36.4183 11.5817 40 16 40Z" stroke="#BDD2FF" stroke-width="3" stroke-linecap="round" stroke-linejoin="round"/>
<path d="M48 58.667C52.4183 58.667 56 55.0853 56 50.667C56 46.2487 52.4183 42.667 48 42.667C43.5817 42.667 40 46.2487 40 50.667C40 55.0853 43.5817 58.667 48 58.667Z" stroke="#BDD2FF" stroke-width="3" stroke-linecap="round" stroke-linejoin="round"/>
<path d="M22.9062 36.0264L41.1196 46.6397" stroke="#BDD2FF" stroke-width="3" stroke-linecap="round" stroke-linejoin="round"/>
<path d="M41.0929 17.3604L22.9062 27.9737" stroke="#BDD2FF" stroke-width="3" stroke-linecap="round" stroke-linejoin="round"/>
</svg>
