<svg width="64" height="64" viewBox="0 0 64 64" fill="none" xmlns="http://www.w3.org/2000/svg">
<path d="M45.1094 57.3334C43.2072 57.3334 41.5856 56.6614 40.2447 55.3174C38.9038 53.9734 38.2334 52.3514 38.2334 50.4514C38.2334 50.1105 38.3529 49.3634 38.5921 48.2101L18.7614 36.5181C18.1098 37.2567 17.3361 37.8354 16.4401 38.2541C15.5441 38.6727 14.571 38.8821 13.5207 38.8821C11.6274 38.8821 10.0114 38.2152 8.67273 36.8814C7.33362 35.5472 6.66406 33.9181 6.66406 31.9941C6.66406 30.0701 7.33362 28.443 8.67273 27.1127C10.0114 25.783 11.6245 25.1181 13.5121 25.1181C14.5285 25.1181 15.479 25.3161 16.3634 25.7121C17.2478 26.1081 18.0114 26.6707 18.6541 27.4001L38.5921 15.8154C38.4863 15.4599 38.4001 15.0932 38.3334 14.7154C38.2667 14.3376 38.2334 13.9476 38.2334 13.5454C38.2334 11.6476 38.9058 10.0267 40.2507 8.68275C41.5961 7.33875 43.2196 6.66675 45.1214 6.66675C47.0232 6.66675 48.6447 7.33919 49.9861 8.68408C51.327 10.0294 51.9974 11.653 51.9974 13.5547C51.9974 15.457 51.3254 17.0785 49.9814 18.4194C48.6374 19.7603 47.0129 20.4307 45.1081 20.4307C44.1143 20.4307 43.1901 20.2308 42.3354 19.8308C41.4812 19.4307 40.7325 18.8974 40.0894 18.2308L20.0281 29.6514C20.1614 30.007 20.2614 30.3872 20.3281 30.7921C20.3947 31.1974 20.4281 31.5932 20.4281 31.9794C20.4281 32.3656 20.4016 32.7299 20.3487 33.0721C20.2958 33.4139 20.2163 33.7625 20.1101 34.1181L40.1561 45.7281C40.8054 45.0614 41.5507 44.535 42.3921 44.1488C43.2334 43.7625 44.1434 43.5694 45.1221 43.5694C47.0398 43.5694 48.6652 44.2419 49.9981 45.5868C51.3309 46.9321 51.9974 48.5556 51.9974 50.4574C51.9974 52.3592 51.3249 53.9808 49.9801 55.3221C48.6347 56.663 47.0112 57.3334 45.1094 57.3334ZM45.1221 54.3074C46.2167 54.3074 47.1321 53.9372 47.8681 53.1968C48.6036 52.4563 48.9714 51.539 48.9714 50.4447C48.9714 49.3501 48.6012 48.4347 47.8607 47.6987C47.1203 46.9627 46.2029 46.5948 45.1087 46.5948C44.0141 46.5948 43.0987 46.965 42.3627 47.7054C41.6267 48.4459 41.2587 49.3634 41.2587 50.4581C41.2587 51.5527 41.629 52.4681 42.3694 53.2041C43.1098 53.9396 44.0274 54.3074 45.1221 54.3074ZM13.5274 35.8568C14.6292 35.8568 15.5505 35.4843 16.2914 34.7394C17.0323 33.9945 17.4027 33.0792 17.4027 31.9934C17.4027 30.9072 17.0301 29.9941 16.2847 29.2541C15.5394 28.5136 14.6156 28.1434 13.5134 28.1434C12.4263 28.1434 11.5172 28.5159 10.7861 29.2607C10.0554 30.0056 9.69006 30.921 9.69006 32.0068C9.69006 33.093 10.0576 34.0061 10.7927 34.7461C11.5283 35.4865 12.4398 35.8568 13.5274 35.8568ZM47.8614 16.2947C48.6014 15.5543 48.9714 14.6367 48.9714 13.5421C48.9714 12.4474 48.6012 11.5321 47.8607 10.7961C47.1203 10.0605 46.2029 9.69275 45.1087 9.69275C44.0141 9.69275 43.0987 10.063 42.3627 10.8034C41.6267 11.5439 41.2587 12.4612 41.2587 13.5554C41.2587 14.6501 41.6312 15.5654 42.3761 16.3014C43.1209 17.0374 44.0363 17.4054 45.1221 17.4054C46.2083 17.4054 47.1214 17.0352 47.8614 16.2947Z" fill="#BDD2FF"/>
</svg>
