<svg width="14" height="10" viewBox="0 0 14 10" fill="none" xmlns="http://www.w3.org/2000/svg">
<path d="M1.16667 10C0.842778 10 0.567333 9.88656 0.340333 9.65967C0.113444 9.43267 0 9.15722 0 8.83333V1.20517C0 0.881278 0.119889 0.599445 0.359667 0.359667C0.599445 0.119889 0.881278 0 1.20517 0H4.86533L6.19867 1.33333H11.4615C11.7598 1.33333 12.0171 1.42972 12.2333 1.6225C12.4496 1.81517 12.5748 2.05211 12.609 2.33333H5.78967L4.45633 1H1.20517C1.14528 1 1.09611 1.01922 1.05767 1.05767C1.01922 1.09611 1 1.14528 1 1.20517V8.79483C1 8.84183 1.01178 8.88028 1.03533 8.91017C1.05878 8.94017 1.08972 8.96583 1.12817 8.98717L2.68333 3.79483H13.7885L12.1743 9.17183C12.0982 9.42217 11.9557 9.62278 11.7468 9.77367C11.5378 9.92456 11.306 10 11.0513 10H1.16667ZM2.17567 9H11.1795L12.4372 4.79483H3.43333L2.17567 9Z" fill="#155DFC"/>
</svg>
