<svg xmlns="http://www.w3.org/2000/svg" xmlns:xlink="http://www.w3.org/1999/xlink" viewBox="0 0 372.06 139.64"><defs><style>.cls-1{fill:#14426f;}.cls-2{fill:url(#linear-gradient);}.cls-3{fill:url(#linear-gradient-2);}.cls-4{fill:url(#linear-gradient-3);}.cls-5{fill:url(#linear-gradient-4);}</style><linearGradient id="linear-gradient" x1="184.23" y1="34.58" x2="156.54" y2="99.82" gradientUnits="userSpaceOnUse"><stop offset="0" stop-color="#99d7e2"/><stop offset="1" stop-color="#1c75bc"/></linearGradient><linearGradient id="linear-gradient-2" x1="184.5" y1="44.66" x2="179.18" y2="77.07" xlink:href="#linear-gradient"/><linearGradient id="linear-gradient-3" x1="177.21" y1="43.83" x2="169.62" y2="78.15" xlink:href="#linear-gradient"/><linearGradient id="linear-gradient-4" x1="167.63" y1="44.29" x2="160.33" y2="76.54" xlink:href="#linear-gradient"/></defs><g id="Layer_2" data-name="Layer 2"><g id="Layer_1-2" data-name="Layer 1"><path class="cls-1" d="M13.67,51.18C13.67,19.08,34,0,60.11,0A40.33,40.33,0,0,1,89.75,12.42l-9.3,11.22c-4.92-4.8-10.68-8.52-19.8-8.52-17.4,0-29.1,13.5-29.1,35.52,0,22.38,10.38,35.94,30.06,35.94,5.46,0,10.86-1.56,14-4.32V61.08H57.11V46.8H91.19V90.06c-6.54,6.6-17.88,11.64-31.32,11.64C33.41,101.7,13.67,83.64,13.67,51.18Z" transform="translate(-13.67)"/><path class="cls-1" d="M217.11,3.26h17.4V47.83H235L269.91,3.26h19.32L259.05,41.53l35.28,59.82h-19.2L248.61,55.21l-14.1,17.52v28.62h-17.4Z" transform="translate(-13.67)"/><path class="cls-1" d="M314.16,3.26h31.38c20.15,0,35,6.17,35,24.17,0,9.24-5,18.24-13.62,21.24v.6c10.86,2.46,18.84,10,18.84,23.28,0,19.62-16.08,28.8-37.67,28.8h-33.9ZM344,43.75c13.67,0,19.49-5.34,19.49-13.86,0-9.48-6.41-13.08-19.13-13.08H331.56V43.75Zm2.28,44c14.39,0,22.43-5.16,22.43-16.2,0-10.32-7.8-14.82-22.43-14.82h-14.7v31Z" transform="translate(-13.67)"/><path class="cls-1" d="M132.54,3.08h11.68L126.53,91.66H174l2.34,9.87H112.85Z" transform="translate(-13.67)"/><path class="cls-1" d="M201.6,25.8a2.38,2.38,0,0,0-.58-1L181.43,4l-.19-.18a2,2,0,0,0-.33-.24,2.57,2.57,0,0,0-1.3-.36H146.93l-1.18,5h30.78L172.82,26a2.5,2.5,0,0,0,2.44,3h20.86L193.3,42.28a27.8,27.8,0,0,1,3.84,6l.27-1.27,4.23-19.9V27A2.4,2.4,0,0,0,201.6,25.8ZM178.34,24l2.73-13.08L193.41,24Z" transform="translate(-13.67)"/><path class="cls-2" d="M183.75,37.83a24.95,24.95,0,1,0-7.9,46.83l4.06,17.18h4l-4.13-18.07.16,0a24.92,24.92,0,0,0,3.84-45.89Zm-5.06,42.08c-.58.19-1.17.34-1.75.48a19.32,19.32,0,0,1-2,.34,20.92,20.92,0,0,1-21.24-30.34,20.92,20.92,0,0,1,37.19,19.18,20.73,20.73,0,0,1-12,10.28Z" transform="translate(-13.67)"/><path class="cls-3" d="M184.07,74.2l-1.91.45c-.74-2.89-3.25-4.13-6.15-5.15a.47.47,0,0,0,.1-.1c.45-.46.93-.94,1.39-1.44C180.44,69.09,183.19,70.7,184.07,74.2Z" transform="translate(-13.67)"/><path class="cls-4" d="M177.13,71a10,10,0,0,1,2.47,1.42l-8.39,2a5.5,5.5,0,0,0-.11,2.86l-1.91.45c-.78-3.49.93-6.17,3-8.49l.35-.39.37-.39c.36-.38.73-.75,1.09-1.12l.43-.43.38-.39.37-.39a19.16,19.16,0,0,0,1.84-2.2l-4.74,1.14a9.66,9.66,0,0,1-2.47-1.42l8.4-2a5.81,5.81,0,0,0,.23-2l-10.9,2.63c1,2.3,3.26,3.39,5.86,4.31l-.1.09c-.45.46-.92.94-1.39,1.44-3-1.13-5.73-2.76-6.59-6.31s.88-6.27,3-8.63l.36-.39.36-.39,1.1-1.12.42-.43.38-.39.38-.39c2.14-2.25,3.82-4.51,3.11-7.47,0-.06,0-.11,0-.16l1.85-.44a.84.84,0,0,1,.06.14c.86,3.56-.87,6.27-3,8.62l-.35.39-.37.39c-.36.38-.73.76-1.09,1.12-.14.15-.29.29-.43.43l-.38.39-.37.39a19.16,19.16,0,0,0-1.84,2.2l4.74-1.14a9.66,9.66,0,0,1,2.47,1.42l-8.4,2a5.55,5.55,0,0,0-.23,2L178,57.72c-1-2.3-3.26-3.39-5.86-4.31l.1-.09c.45-.46.92-.94,1.39-1.44,3,1.13,5.73,2.76,6.59,6.31s-.88,6.27-3,8.63l-.72.78-1.1,1.12-.42.43-.38.39-.38.39a20.16,20.16,0,0,0-1.84,2.19Z" transform="translate(-13.67)"/><path class="cls-5" d="M168.05,52c-3-1.13-5.72-2.76-6.58-6.32a.74.74,0,0,1,0-.21l1.83-.43a.71.71,0,0,1,.08.18,5.59,5.59,0,0,0,1.44,2.62l8.39-2a9.88,9.88,0,0,1-1.55,2.39l-4.74,1.14a19.61,19.61,0,0,0,2.63,1.12l-.09.1C169,51,168.52,51.51,168.05,52Z" transform="translate(-13.67)"/><path class="cls-1" d="M19.49,127.81c0-5.64,3.78-10.07,8.92-10.07A5,5,0,0,1,33,120.33l-2.33,1.8a2.68,2.68,0,0,0-2.39-1.44c-3,0-5.23,3.26-5.23,6.89,0,2.5,1,4.13,3.52,4.13a3.12,3.12,0,0,0,1.79-.56L29,128H26.33l.52-2.8h5.68L31,132.94a8.38,8.38,0,0,1-5.08,1.69C21.91,134.63,19.49,132.09,19.49,127.81Z" transform="translate(-13.67)"/><path class="cls-1" d="M40.35,121.63c3,0,4,2.08,4,4.65a7.52,7.52,0,0,1-.63,2.82H36.7A2.55,2.55,0,0,0,39.49,132a4.28,4.28,0,0,0,2.28-.87L43,133.33a7.76,7.76,0,0,1-4.45,1.3c-3,0-5.07-2-5.07-5.31C33.46,124.73,37.05,121.63,40.35,121.63ZM41.48,127a4.07,4.07,0,0,0,.11-.92c0-1-.42-1.84-1.66-1.84s-2.39.94-3,2.76Z" transform="translate(-13.67)"/><path class="cls-1" d="M47.3,121.93h2.79L50,123.59h.1a6.67,6.67,0,0,1,4.18-2c2,0,2.93,1.12,2.93,3.19a8.64,8.64,0,0,1-.2,1.76l-1.55,7.75H52.07L53.54,127a5.87,5.87,0,0,0,.2-1.19,1.13,1.13,0,0,0-1.26-1.28c-.77,0-1.53.51-2.6,1.62l-1.6,8.17H44.86Z" transform="translate(-13.67)"/><path class="cls-1" d="M58.42,129.52c0-4.78,3.53-7.89,7-7.89,2.89,0,4.81,2,4.81,5.11,0,4.78-3.53,7.89-7,7.89C60.34,134.63,58.42,132.6,58.42,129.52Zm8.3-2.71c0-1.52-.58-2.43-1.73-2.43-1.67,0-3.11,2.18-3.11,5.07,0,1.51.58,2.43,1.73,2.43C65.28,131.88,66.72,129.7,66.72,126.81Z" transform="translate(-13.67)"/><path class="cls-1" d="M73.18,121.93H76l0,1.66H76a6.54,6.54,0,0,1,4-2,2.58,2.58,0,0,1,2.87,2.18,6.66,6.66,0,0,1,4.19-2.18c2,0,2.93,1.12,2.93,3.19a8.64,8.64,0,0,1-.2,1.76l-1.55,7.75H84.83L86.3,127a6.67,6.67,0,0,0,.2-1.19,1.14,1.14,0,0,0-1.26-1.28c-.55,0-1.38.51-2.42,1.62l-1.64,8.17H77.76L79.23,127a5.87,5.87,0,0,0,.2-1.19,1.12,1.12,0,0,0-1.21-1.28c-.59,0-1.42.51-2.47,1.62l-1.59,8.17H70.74Z" transform="translate(-13.67)"/><path class="cls-1" d="M93.27,121.93h3.42l-2.48,12.4H90.79Zm.51-3.5a2.09,2.09,0,0,1,2.13-2,1.71,1.71,0,0,1,1.85,1.65,2,2,0,0,1-2.13,2A1.68,1.68,0,0,1,93.78,118.43Z" transform="translate(-13.67)"/><path class="cls-1" d="M97.16,129.52c0-4.29,3.21-7.89,7.29-7.89a4.24,4.24,0,0,1,3.33,1.53l-1.9,2a2.07,2.07,0,0,0-1.64-.8c-2,0-3.58,2.3-3.58,5.07,0,1.51.7,2.43,2.1,2.43a3.13,3.13,0,0,0,2-.81l1.43,2.12a6.63,6.63,0,0,1-4.15,1.44C99.25,134.63,97.16,132.76,97.16,129.52Z" transform="translate(-13.67)"/><path class="cls-1" d="M115.17,118h3.43l-2.7,13.41h6.18l-.56,2.88h-9.6Z" transform="translate(-13.67)"/><path class="cls-1" d="M125.92,121.93h3.42l-2.48,12.4h-3.42Zm.51-3.5a2.09,2.09,0,0,1,2.13-2,1.71,1.71,0,0,1,1.85,1.65,2,2,0,0,1-2.13,2A1.68,1.68,0,0,1,126.43,118.43Z" transform="translate(-13.67)"/><path class="cls-1" d="M130.64,131.35a9.09,9.09,0,0,1,.18-1.56l1.08-5.19h-1.65l.51-2.53,1.83-.14,1-3.25h2.86l-.62,3.25h2.81l-.52,2.67h-2.89l-1.08,5.32a4.84,4.84,0,0,0-.06.83c0,.82.4,1.21,1.3,1.21a2.22,2.22,0,0,0,1-.29l.62,2.41a8,8,0,0,1-2.91.55C131.65,134.63,130.64,133.25,130.64,131.35Z" transform="translate(-13.67)"/><path class="cls-1" d="M144.92,121.63c3,0,4.05,2.08,4.05,4.65a7.52,7.52,0,0,1-.63,2.82h-7.07a2.55,2.55,0,0,0,2.79,2.94,4.25,4.25,0,0,0,2.28-.87l1.22,2.16a7.79,7.79,0,0,1-4.45,1.3c-3,0-5.08-2-5.08-5.31C138,124.73,141.63,121.63,144.92,121.63Zm1.14,5.38a4.07,4.07,0,0,0,.11-.92c0-1-.42-1.84-1.67-1.84s-2.39.94-2.95,2.76Z" transform="translate(-13.67)"/><path class="cls-1" d="M151.88,121.93h2.78l-.15,2.41h.1c1-1.56,2.36-2.71,3.79-2.71a2.71,2.71,0,0,1,1.3.24l-1.13,3a2.73,2.73,0,0,0-1.23-.2c-1.09,0-2.11.77-3.09,2.51l-1.39,7.19h-3.42Z" transform="translate(-13.67)"/><path class="cls-1" d="M158.58,130.08c0-4.72,3.2-8.45,6.62-8.45a3,3,0,0,1,2.7,1.63H168l.53-1.33h2.74l-2.48,12.4H166l.05-1.62H166a5.75,5.75,0,0,1-3.88,1.92C159.9,134.63,158.58,133,158.58,130.08Zm7.64-.08.89-4.39a1.93,1.93,0,0,0-1.67-1.19c-1.72,0-3.32,2.27-3.32,5.22,0,1.52.57,2.2,1.45,2.2A3.09,3.09,0,0,0,166.22,130Z" transform="translate(-13.67)"/><path class="cls-1" d="M172.54,131.35a9.09,9.09,0,0,1,.18-1.56l1.08-5.19h-1.65l.51-2.53,1.83-.14,1-3.25h2.86l-.62,3.25h2.81l-.52,2.67h-2.89l-1.08,5.32a4.84,4.84,0,0,0-.06.83c0,.82.4,1.21,1.3,1.21a2.26,2.26,0,0,0,1-.29l.62,2.41a8,8,0,0,1-2.91.55C173.55,134.63,172.54,133.25,172.54,131.35Z" transform="translate(-13.67)"/><path class="cls-1" d="M190.06,134.33h-2.78l.05-1.67h-.1a6.34,6.34,0,0,1-4,2c-2.05,0-2.93-1.12-2.93-3.19a8.48,8.48,0,0,1,.2-1.76l1.55-7.75h3.41L184,129.25a5.9,5.9,0,0,0-.2,1.18,1.13,1.13,0,0,0,1.26,1.28c.73,0,1.48-.51,2.48-1.62l1.59-8.16h3.42Z" transform="translate(-13.67)"/><path class="cls-1" d="M195.08,121.93h2.78l-.15,2.41h.1c1-1.56,2.36-2.71,3.79-2.71a2.71,2.71,0,0,1,1.3.24l-1.13,3a2.73,2.73,0,0,0-1.23-.2c-1.09,0-2.11.77-3.09,2.51l-1.39,7.19h-3.42Z" transform="translate(-13.67)"/><path class="cls-1" d="M208.62,121.63c3,0,4,2.08,4,4.65a7.52,7.52,0,0,1-.63,2.82H205a2.55,2.55,0,0,0,2.79,2.94,4.25,4.25,0,0,0,2.28-.87l1.21,2.16a7.73,7.73,0,0,1-4.44,1.3c-3,0-5.08-2-5.08-5.31C201.73,124.73,205.33,121.63,208.62,121.63Zm1.14,5.38a4.79,4.79,0,0,0,.1-.92c0-1-.42-1.84-1.66-1.84s-2.39.94-3,2.76Z" transform="translate(-13.67)"/><path class="cls-1" d="M221.07,118h3.43l-1.34,6.69h.1l6.13-6.69h3.75l-5.93,6.7,3.63,9.59h-3.56l-2.61-7.45-2.47,2.67-1,4.78h-3.43Z" transform="translate(-13.67)"/><path class="cls-1" d="M234.38,121.93h2.78l0,1.66h.1a6.62,6.62,0,0,1,4.17-2c2.05,0,2.93,1.12,2.93,3.19a8.64,8.64,0,0,1-.2,1.76l-1.55,7.75h-3.41l1.46-7.32a5.87,5.87,0,0,0,.2-1.19,1.13,1.13,0,0,0-1.26-1.28c-.77,0-1.53.51-2.6,1.62l-1.6,8.17h-3.41Z" transform="translate(-13.67)"/><path class="cls-1" d="M245.49,129.52c0-4.78,3.53-7.89,6.95-7.89,2.89,0,4.81,2,4.81,5.11,0,4.78-3.53,7.89-6.95,7.89C247.41,134.63,245.49,132.6,245.49,129.52Zm8.3-2.71c0-1.52-.58-2.43-1.73-2.43-1.67,0-3.11,2.18-3.11,5.07,0,1.51.58,2.43,1.73,2.43C252.35,131.88,253.79,129.7,253.79,126.81Z" transform="translate(-13.67)"/><path class="cls-1" d="M258.86,121.93h3.37l0,6c0,1.2-.11,2.41-.15,3.65h.1c.46-1.24.89-2.47,1.41-3.65l2.53-6h3l.21,6c0,1.2,0,2.41,0,3.65h.1c.46-1.24.83-2.45,1.29-3.65l2.33-6h3.17l-5.29,12.4h-4l-.1-5.2c0-1.16,0-2.33.05-3.64h-.1c-.48,1.31-.86,2.48-1.31,3.64l-2.12,5.2h-3.89Z" transform="translate(-13.67)"/><path class="cls-1" d="M276.05,132.2a7.18,7.18,0,0,1,.18-1.51L279,116.82h3.42l-2.81,14a2.05,2.05,0,0,0-.05.48c0,.43.22.58.47.58a1.3,1.3,0,0,0,.44-.06l-.1,2.53a5.41,5.41,0,0,1-1.82.28A2.18,2.18,0,0,1,276.05,132.2Z" transform="translate(-13.67)"/><path class="cls-1" d="M289,121.63c3,0,4,2.08,4,4.65a7.52,7.52,0,0,1-.63,2.82h-7.06a2.54,2.54,0,0,0,2.79,2.94,4.22,4.22,0,0,0,2.27-.87l1.22,2.16a7.76,7.76,0,0,1-4.45,1.3c-3,0-5.07-2-5.07-5.31C282.11,124.73,285.7,121.63,289,121.63Zm1.13,5.38a4.07,4.07,0,0,0,.11-.92c0-1-.42-1.84-1.66-1.84s-2.39.94-3,2.76Z" transform="translate(-13.67)"/><path class="cls-1" d="M303.44,120.78l.77-4h3.42l-3.53,17.51h-2.78l.05-1.62h-.06a5.75,5.75,0,0,1-3.88,1.92c-2.18,0-3.5-1.63-3.5-4.55,0-4.72,3.2-8.45,6.62-8.45a2.81,2.81,0,0,1,2.53,1.5h.06ZM301.57,130l.89-4.39a1.94,1.94,0,0,0-1.67-1.19c-1.72,0-3.32,2.27-3.32,5.22,0,1.52.57,2.2,1.45,2.2A3.13,3.13,0,0,0,301.57,130Z" transform="translate(-13.67)"/><path class="cls-1" d="M305.87,137.91l1.48-2.28a5.33,5.33,0,0,0,3.19,1.3,3.17,3.17,0,0,0,3.2-2.59l.64-2.2a5.38,5.38,0,0,1-3.81,1.79c-2.09,0-3.61-1.41-3.61-4.33,0-4.45,3.07-8,6.47-8a3,3,0,0,1,2.65,1.63h.06l.53-1.33h2.79L317,134.13c-.74,3.67-3.08,5.51-6.56,5.51A7.57,7.57,0,0,1,305.87,137.91Zm8.66-8.37.76-3.93a1.88,1.88,0,0,0-1.62-1.19c-1.7,0-3.17,2.06-3.17,4.74,0,1.35.55,2,1.4,2A3.13,3.13,0,0,0,314.53,129.54Z" transform="translate(-13.67)"/><path class="cls-1" d="M326.82,121.63c3,0,4,2.08,4,4.65a7.33,7.33,0,0,1-.63,2.82h-7.06A2.55,2.55,0,0,0,326,132a4.25,4.25,0,0,0,2.28-.87l1.21,2.16a7.75,7.75,0,0,1-4.44,1.3c-3,0-5.08-2-5.08-5.31C319.93,124.73,323.52,121.63,326.82,121.63ZM328,127a4.07,4.07,0,0,0,.11-.92c0-1-.42-1.84-1.66-1.84s-2.39.94-3,2.76Z" transform="translate(-13.67)"/><path class="cls-1" d="M339.27,118h5c3.26,0,5.49,1.14,5.49,3.71,0,1.88-1.42,3.45-3.54,4.07l0,.1c1.8.43,2.82,1.45,2.82,3,0,3.83-3.23,5.36-7.05,5.36H336Zm2.81,13.66c2.31,0,3.58-.91,3.58-2.59,0-1.33-.87-2.08-2.63-2.08h-2.14L340,131.7Zm.91-7c2.28,0,3.23-1,3.23-2.36,0-1.07-.81-1.67-2.58-1.67h-1.46l-.82,4Z" transform="translate(-13.67)"/><path class="cls-1" d="M350.56,130.08c0-4.72,3.19-8.45,6.62-8.45a3,3,0,0,1,2.69,1.63h.06l.53-1.33h2.75l-2.48,12.4h-2.79l.05-1.62h-.05a5.79,5.79,0,0,1-3.88,1.92C351.87,134.63,350.56,133,350.56,130.08Zm7.63-.08.89-4.39a1.92,1.92,0,0,0-1.66-1.19c-1.73,0-3.32,2.27-3.32,5.22,0,1.52.56,2.2,1.45,2.2A3.08,3.08,0,0,0,358.19,130Z" transform="translate(-13.67)"/><path class="cls-1" d="M362.75,132.22l2-1.63a3.52,3.52,0,0,0,2.67,1.54c.93,0,1.73-.51,1.73-1.18s-.73-1-2.14-1.83-2.5-1.88-2.5-3.45c0-2.33,2.15-4,4.8-4a5.57,5.57,0,0,1,4.06,1.89l-1.85,1.78a3.19,3.19,0,0,0-2.22-1.13c-.94,0-1.58.53-1.58,1.18s1.05,1.15,2,1.72c1.48.8,2.6,1.78,2.6,3.48,0,2.44-2.16,4.08-5.16,4.08A5.63,5.63,0,0,1,362.75,132.22Z" transform="translate(-13.67)"/><path class="cls-1" d="M380.55,121.63c3,0,4,2.08,4,4.65a7.52,7.52,0,0,1-.63,2.82h-7.07a2.55,2.55,0,0,0,2.8,2.94,4.22,4.22,0,0,0,2.27-.87l1.22,2.16a7.76,7.76,0,0,1-4.45,1.3c-3,0-5.07-2-5.07-5.31C373.66,124.73,377.25,121.63,380.55,121.63Zm1.13,5.38a4.07,4.07,0,0,0,.11-.92c0-1-.42-1.84-1.67-1.84s-2.39.94-2.95,2.76Z" transform="translate(-13.67)"/></g></g></svg>