<svg xmlns="http://www.w3.org/2000/svg" xmlns:xlink="http://www.w3.org/1999/xlink" viewBox="0 0 372.06 101.84"><defs><style>.cls-1{fill:#fff;}.cls-2{fill:url(#linear-gradient);}.cls-3{fill:url(#linear-gradient-2);}.cls-4{fill:url(#linear-gradient-3);}.cls-5{fill:url(#linear-gradient-4);}</style><linearGradient id="linear-gradient" x1="170.56" y1="34.58" x2="142.87" y2="99.82" gradientUnits="userSpaceOnUse"><stop offset="0" stop-color="#99d7e2"/><stop offset="1" stop-color="#1c75bc"/></linearGradient><linearGradient id="linear-gradient-2" x1="170.83" y1="44.66" x2="165.51" y2="77.07" xlink:href="#linear-gradient"/><linearGradient id="linear-gradient-3" x1="163.54" y1="43.83" x2="155.95" y2="78.15" xlink:href="#linear-gradient"/><linearGradient id="linear-gradient-4" x1="153.96" y1="44.29" x2="146.66" y2="76.54" xlink:href="#linear-gradient"/></defs><g id="Layer_2" data-name="Layer 2"><g id="Layer_1-2" data-name="Layer 1"><path class="cls-1" d="M0,51.18C0,19.08,20.34,0,46.44,0A40.33,40.33,0,0,1,76.08,12.42l-9.3,11.22c-4.92-4.8-10.68-8.52-19.8-8.52-17.4,0-29.1,13.5-29.1,35.52,0,22.38,10.38,35.94,30.06,35.94,5.46,0,10.86-1.56,14-4.32V61.08H43.44V46.8H77.52V90.06C71,96.66,59.64,101.7,46.2,101.7,19.74,101.7,0,83.64,0,51.18Z"/><path class="cls-1" d="M203.44,3.26h17.4V47.83h.48L256.24,3.26h19.32L245.38,41.53l35.28,59.82h-19.2L234.94,55.21l-14.1,17.52v28.62h-17.4Z"/><path class="cls-1" d="M300.49,3.26h31.38c20.15,0,35,6.17,35,24.17,0,9.24-5,18.24-13.62,21.24v.6c10.86,2.46,18.84,10,18.84,23.28,0,19.62-16.08,28.8-37.68,28.8H300.49ZM330.3,43.75c13.68,0,19.5-5.34,19.5-13.86,0-9.48-6.42-13.08-19.14-13.08H317.89V43.75Zm2.28,44c14.4,0,22.44-5.16,22.44-16.2,0-10.32-7.8-14.82-22.44-14.82H317.89v31Z"/><path class="cls-1" d="M118.87,3.08h11.68L112.86,91.66h47.47l2.34,9.87H99.18Z"/><path class="cls-1" d="M187.93,25.8a2.38,2.38,0,0,0-.58-1L167.76,4l-.19-.18a2,2,0,0,0-.33-.24,2.57,2.57,0,0,0-1.3-.36H133.26l-1.18,5h30.78L159.15,26a2.5,2.5,0,0,0,2.44,3h20.86l-2.82,13.28a27.8,27.8,0,0,1,3.84,6l.27-1.27L188,27.09V27A2.4,2.4,0,0,0,187.93,25.8ZM164.67,24l2.73-13.08L179.74,24Z"/><path class="cls-2" d="M170.08,37.83a24.95,24.95,0,1,0-7.9,46.83l4.06,17.18h4l-4.12-18.07.16,0a24.92,24.92,0,0,0,3.84-45.89ZM165,79.91c-.58.19-1.17.34-1.75.48a19.32,19.32,0,0,1-2,.34,20.92,20.92,0,0,1-21.24-30.34,20.92,20.92,0,0,1,37.19,19.18A20.73,20.73,0,0,1,165.2,79.85Z"/><path class="cls-3" d="M170.4,74.2l-1.91.45c-.74-2.89-3.25-4.13-6.15-5.15l.1-.1c.45-.46.93-.94,1.39-1.44C166.77,69.09,169.52,70.7,170.4,74.2Z"/><path class="cls-4" d="M163.46,71a10,10,0,0,1,2.47,1.42l-8.39,2a5.5,5.5,0,0,0-.11,2.86l-1.91.45c-.78-3.49.93-6.17,3-8.49l.35-.39.37-.39c.36-.38.73-.75,1.09-1.12l.43-.43.38-.39.37-.39a19.16,19.16,0,0,0,1.84-2.2l-4.74,1.14a9.66,9.66,0,0,1-2.47-1.42l8.4-2a5.81,5.81,0,0,0,.23-2l-10.9,2.63c1,2.3,3.26,3.39,5.86,4.31l-.1.09c-.45.46-.92.94-1.39,1.44-3-1.13-5.73-2.76-6.59-6.31s.88-6.27,3-8.63l.36-.39.36-.39,1.1-1.12.42-.43.38-.39.38-.39c2.14-2.25,3.82-4.51,3.11-7.47,0-.06,0-.11,0-.16l1.85-.44a.84.84,0,0,1,.06.14c.86,3.56-.87,6.27-3,8.62l-.35.39-.37.39c-.36.38-.73.76-1.09,1.12l-.43.43-.38.39-.37.39a19.16,19.16,0,0,0-1.84,2.2l4.74-1.14a9.66,9.66,0,0,1,2.47,1.42l-8.4,2a5.55,5.55,0,0,0-.23,2l10.9-2.62c-1-2.3-3.26-3.39-5.86-4.31l.1-.09c.45-.46.92-.94,1.39-1.44,3,1.13,5.73,2.76,6.59,6.31s-.88,6.27-3,8.63l-.72.78-1.1,1.12-.42.43-.38.39-.38.39a20.16,20.16,0,0,0-1.84,2.19Z"/><path class="cls-5" d="M154.38,52c-2.95-1.13-5.72-2.76-6.58-6.32a.74.74,0,0,1,0-.21l1.83-.43a.71.71,0,0,1,.08.18,5.59,5.59,0,0,0,1.44,2.62l8.39-2A9.88,9.88,0,0,1,158,48.21l-4.74,1.14a19.61,19.61,0,0,0,2.63,1.12l-.09.1C155.33,51,154.85,51.51,154.38,52Z"/></g></g></svg>