<?xml version="1.0" encoding="UTF-8"?><svg id="_图层_1" xmlns="http://www.w3.org/2000/svg" xmlns:xlink="http://www.w3.org/1999/xlink" viewBox="0 0 403.4 147.7"><defs><style>.cls-1{fill:#fff;}.cls-2{clip-path:url(#clippath-2);}.cls-3{clip-path:url(#clippath-1);}.cls-4{clip-path:url(#clippath-4);}.cls-5{clip-path:url(#clippath);}.cls-6{fill:none;}.cls-7{clip-path:url(#clippath-3);}.cls-8{fill:#fcfcfc;}</style><clipPath id="clippath"><rect class="cls-6" y="0" width="403.4" height="147.7"/></clipPath><clipPath id="clippath-1"><path class="cls-1" d="M162.74,78.58c-4.97-2.56-8.64-6.91-10.34-12.23-1.7-5.32-1.23-10.99,1.33-15.96,3.71-7.19,11.04-11.33,18.63-11.33,3.23,0,6.5,.75,9.56,2.33,10.25,5.29,14.29,17.93,9,28.18-2.53,4.91-6.8,8.56-12.05,10.28-.06,.02-.12,.04-.18,.06-.58,.19-1.17,.34-1.75,.48-.66,.15-1.31,.26-1.97,.34-.9,.12-1.8,.18-2.7,.18-3.28,0-6.53-.78-9.53-2.33m-12.56-30.02c-3.05,5.92-3.62,12.67-1.59,19.01,2.02,6.34,6.4,11.51,12.31,14.56,3.59,1.85,7.48,2.79,11.4,2.79,1.18,0,2.37-.09,3.55-.26l4.07,17.18h3.96l-4.13-18.07c.05-.02,.11-.03,.16-.05,6.34-2.02,11.51-6.4,14.57-12.31,6.29-12.22,1.48-27.28-10.73-33.58-3.64-1.88-7.53-2.76-11.37-2.76-9.04,0-17.77,4.93-22.2,13.5"/></clipPath><clipPath id="clippath-2"><path class="cls-1" d="M176.11,69.4s-.06,.07-.1,.1c2.9,1.02,5.41,2.26,6.15,5.15l1.91-.45c-.88-3.5-3.63-5.11-6.57-6.24-.46,.5-.94,.98-1.39,1.44"/></clipPath><clipPath id="clippath-3"><path class="cls-1" d="M174.43,42.41s0,.1,.01,.16c.71,2.96-.97,5.22-3.11,7.47-.13,.13-.25,.26-.38,.39-.12,.13-.25,.26-.38,.39-.14,.15-.28,.29-.42,.43-.37,.37-.73,.74-1.1,1.12-.12,.13-.24,.26-.36,.39-.12,.13-.24,.26-.36,.39-2.11,2.36-3.84,5.07-2.99,8.63,.86,3.55,3.63,5.18,6.59,6.31,.47-.5,.94-.98,1.39-1.44,.04-.03,.07-.06,.1-.09-2.6-.92-4.88-2.01-5.86-4.31l10.9-2.63c.04,.71-.04,1.37-.23,2.01l-8.4,2.02c.66,.55,1.49,1.01,2.47,1.42l4.74-1.14c-.52,.75-1.15,1.47-1.84,2.2-.12,.13-.25,.26-.37,.39-.13,.13-.26,.26-.38,.39l-.43,.43c-.36,.37-.73,.74-1.09,1.12-.12,.13-.25,.26-.37,.39-.12,.13-.24,.26-.35,.39-2.09,2.32-3.8,5-3.02,8.49l1.91-.45c-.23-1.03-.16-1.97,.11-2.86l8.39-2.02c-.66-.55-1.49-1-2.47-1.42l-4.74,1.14c.53-.74,1.15-1.47,1.84-2.19,.12-.13,.25-.26,.38-.39,.12-.13,.25-.26,.38-.39,.14-.15,.28-.29,.42-.43,.36-.37,.73-.74,1.1-1.12l.72-.78c2.11-2.36,3.84-5.07,2.99-8.63-.86-3.55-3.63-5.18-6.59-6.31-.47,.5-.94,.98-1.39,1.44-.04,.03-.07,.06-.1,.09,2.6,.92,4.88,2.01,5.86,4.31l-10.9,2.62c-.05-.7,.04-1.36,.23-2l8.4-2.02c-.66-.55-1.49-1.01-2.47-1.42l-4.74,1.14c.52-.75,1.15-1.47,1.84-2.2,.12-.13,.25-.26,.37-.39,.13-.13,.25-.26,.38-.39,.14-.14,.29-.28,.43-.43,.36-.36,.73-.74,1.09-1.12,.12-.13,.25-.26,.37-.39,.12-.13,.24-.26,.35-.39,2.12-2.35,3.85-5.06,2.99-8.62,0-.05-.04-.09-.06-.14l-1.85,.44Z"/></clipPath><clipPath id="clippath-4"><path class="cls-1" d="M161.46,45.48c0,.07-.01,.14,.01,.21,.86,3.56,3.63,5.19,6.58,6.32,.47-.5,.95-.98,1.4-1.44,.03-.04,.06-.07,.09-.1-.93-.33-1.82-.69-2.63-1.12l4.74-1.14c.68-.81,1.21-1.6,1.55-2.39l-8.39,2.03c-.67-.7-1.18-1.54-1.44-2.62,0-.06-.05-.12-.08-.18l-1.83,.43Z"/></clipPath></defs><g class="cls-5"><path class="cls-8" d="M13.67,51.18C13.67,19.08,34.01,0,60.11,0c13.92,0,23.46,6.12,29.64,12.42l-9.3,11.22c-4.92-4.8-10.68-8.52-19.8-8.52-17.4,0-29.1,13.5-29.1,35.52s10.38,35.94,30.06,35.94c5.46,0,10.86-1.56,13.98-4.32v-21.18h-18.48v-14.28h34.08v43.26c-6.54,6.6-17.88,11.64-31.32,11.64-26.46,0-46.2-18.06-46.2-50.52"/><polygon class="cls-1" points="217.11 3.26 234.51 3.26 234.51 47.83 234.99 47.83 269.91 3.26 289.23 3.26 259.05 41.53 294.33 101.35 275.13 101.35 248.61 55.21 234.51 72.73 234.51 101.35 217.11 101.35 217.11 3.26"/><path class="cls-1" d="M314.16,3.26h31.38c20.16,0,34.98,6.18,34.98,24.18,0,9.24-5.04,18.24-13.62,21.24v.6c10.86,2.46,18.84,10.02,18.84,23.28,0,19.62-16.08,28.8-37.68,28.8h-33.9V3.26Zm29.82,40.5c13.68,0,19.5-5.34,19.5-13.86,0-9.48-6.42-13.08-19.14-13.08h-12.78v26.94h12.42Zm2.28,44.04c14.4,0,22.44-5.16,22.44-16.2,0-10.32-7.8-14.82-22.44-14.82h-14.7v31.02h14.7Z"/><polygon class="cls-1" points="132.54 3.08 144.22 3.08 126.53 91.66 174 91.66 176.34 101.53 112.85 101.53 132.54 3.08"/><path class="cls-1" d="M201.6,25.8c-.1-.37-.3-.73-.58-1.02l-19.59-20.77c-.06-.06-.12-.12-.19-.18-.1-.09-.21-.17-.33-.24-.39-.23-.84-.36-1.3-.36h-32.68l-1.18,5h30.78l-3.71,17.76c-.16,.73,.03,1.5,.5,2.08,.48,.59,1.19,.93,1.94,.93h20.86l-2.82,13.28c1.54,1.83,2.83,3.85,3.84,5.98l.27-1.27,4.23-19.9v-.07c.1-.41,.08-.83-.04-1.22m-23.26-1.8l2.73-13.08,12.34,13.08h-15.07Z"/></g><g><path class="cls-1" d="M162.74,78.58c-4.97-2.56-8.64-6.91-10.34-12.23-1.7-5.32-1.23-10.99,1.33-15.96,3.71-7.19,11.04-11.33,18.63-11.33,3.23,0,6.5,.75,9.56,2.33,10.25,5.29,14.29,17.93,9,28.18-2.53,4.91-6.8,8.56-12.05,10.28-.06,.02-.12,.04-.18,.06-.58,.19-1.17,.34-1.75,.48-.66,.15-1.31,.26-1.97,.34-.9,.12-1.8,.18-2.7,.18-3.28,0-6.53-.78-9.53-2.33m-12.56-30.02c-3.05,5.92-3.62,12.67-1.59,19.01,2.02,6.34,6.4,11.51,12.31,14.56,3.59,1.85,7.48,2.79,11.4,2.79,1.18,0,2.37-.09,3.55-.26l4.07,17.18h3.96l-4.13-18.07c.05-.02,.11-.03,.16-.05,6.34-2.02,11.51-6.4,14.57-12.31,6.29-12.22,1.48-27.28-10.73-33.58-3.64-1.88-7.53-2.76-11.37-2.76-9.04,0-17.77,4.93-22.2,13.5"/><g class="cls-3"><rect class="cls-1" x="132.34" y="30.46" width="82.65" height="75.99" transform="translate(42.8 201.57) rotate(-67)"/></g></g><g><path class="cls-1" d="M176.11,69.4s-.06,.07-.1,.1c2.9,1.02,5.41,2.26,6.15,5.15l1.91-.45c-.88-3.5-3.63-5.11-6.57-6.24-.46,.5-.94,.98-1.39,1.44"/><g class="cls-2"><rect class="cls-1" x="176.09" y="66.78" width="7.91" height="9.04" transform="translate(80.53 237.42) rotate(-80.68)"/></g></g><g><path class="cls-1" d="M174.43,42.41s0,.1,.01,.16c.71,2.96-.97,5.22-3.11,7.47-.13,.13-.25,.26-.38,.39-.12,.13-.25,.26-.38,.39-.14,.15-.28,.29-.42,.43-.37,.37-.73,.74-1.1,1.12-.12,.13-.24,.26-.36,.39-.12,.13-.24,.26-.36,.39-2.11,2.36-3.84,5.07-2.99,8.63,.86,3.55,3.63,5.18,6.59,6.31,.47-.5,.94-.98,1.39-1.44,.04-.03,.07-.06,.1-.09-2.6-.92-4.88-2.01-5.86-4.31l10.9-2.63c.04,.71-.04,1.37-.23,2.01l-8.4,2.02c.66,.55,1.49,1.01,2.47,1.42l4.74-1.14c-.52,.75-1.15,1.47-1.84,2.2-.12,.13-.25,.26-.37,.39-.13,.13-.26,.26-.38,.39l-.43,.43c-.36,.37-.73,.74-1.09,1.12-.12,.13-.25,.26-.37,.39-.12,.13-.24,.26-.35,.39-2.09,2.32-3.8,5-3.02,8.49l1.91-.45c-.23-1.03-.16-1.97,.11-2.86l8.39-2.02c-.66-.55-1.49-1-2.47-1.42l-4.74,1.14c.53-.74,1.15-1.47,1.84-2.19,.12-.13,.25-.26,.38-.39,.12-.13,.25-.26,.38-.39,.14-.15,.28-.29,.42-.43,.36-.37,.73-.74,1.1-1.12l.72-.78c2.11-2.36,3.84-5.07,2.99-8.63-.86-3.55-3.63-5.18-6.59-6.31-.47,.5-.94,.98-1.39,1.44-.04,.03-.07,.06-.1,.09,2.6,.92,4.88,2.01,5.86,4.31l-10.9,2.62c-.05-.7,.04-1.36,.23-2l8.4-2.02c-.66-.55-1.49-1.01-2.47-1.42l-4.74,1.14c.52-.75,1.15-1.47,1.84-2.2,.12-.13,.25-.26,.37-.39,.13-.13,.25-.26,.38-.39,.14-.14,.29-.28,.43-.43,.36-.36,.73-.74,1.09-1.12,.12-.13,.25-.26,.37-.39,.12-.13,.24-.26,.35-.39,2.12-2.35,3.85-5.06,2.99-8.62,0-.05-.04-.09-.06-.14l-1.85,.44Z"/><g class="cls-7"><rect class="cls-1" x="153.53" y="47.9" width="38.49" height="23.9" transform="translate(77.07 215.65) rotate(-77.54)"/></g></g><g><path class="cls-1" d="M161.46,45.48c0,.07-.01,.14,.01,.21,.86,3.56,3.63,5.19,6.58,6.32,.47-.5,.95-.98,1.4-1.44,.03-.04,.06-.07,.09-.1-.93-.33-1.82-.69-2.63-1.12l4.74-1.14c.68-.81,1.21-1.6,1.55-2.39l-8.39,2.03c-.67-.7-1.18-1.54-1.44-2.62,0-.06-.05-.12-.08-.18l-1.83,.43Z"/><g class="cls-4"><rect class="cls-1" x="162.63" y="42.03" width="9.38" height="13" transform="translate(83.02 200.99) rotate(-77.23)"/></g></g><path class="cls-1" d="M19.49,127.81c0-5.64,3.78-10.07,8.92-10.07,2.1,0,3.63,.98,4.54,2.59l-2.33,1.8c-.61-.94-1.33-1.43-2.38-1.43-3.02,0-5.24,3.25-5.24,6.88,0,2.51,.99,4.14,3.52,4.14,.67,0,1.34-.23,1.79-.57l.69-3.2h-2.67l.52-2.79h5.69l-1.51,7.78c-1.23,.96-3.04,1.69-5.08,1.69-4.02,0-6.45-2.53-6.45-6.82Zm20.86-6.18c2.96,0,4.04,2.08,4.04,4.65,0,1.17-.44,2.45-.63,2.82h-7.07c-.09,2.06,1.16,2.94,2.79,2.94,.77,0,1.66-.43,2.28-.87l1.21,2.16c-.99,.7-2.53,1.3-4.45,1.3-3,0-5.08-1.99-5.08-5.31,0-4.59,3.59-7.69,6.89-7.69Zm1.13,5.38c.06-.25,.11-.58,.11-.92,0-1-.42-1.83-1.66-1.83-1.18,0-2.39,.94-2.96,2.76h4.51Zm5.82-5.08h2.78l-.05,1.66h.1c1.21-1.05,2.6-1.96,4.18-1.96,2.05,0,2.93,1.12,2.93,3.19,0,.56-.07,1.15-.2,1.76l-1.55,7.75h-3.42l1.47-7.32c.11-.5,.2-.85,.2-1.19,0-.85-.44-1.28-1.26-1.28-.77,0-1.53,.51-2.6,1.62l-1.59,8.17h-3.42l2.44-12.4Zm11.11,7.59c0-4.78,3.53-7.89,6.95-7.89,2.89,0,4.81,2.03,4.81,5.11,0,4.78-3.53,7.89-6.95,7.89-2.89,0-4.81-2.03-4.81-5.11Zm8.3-2.71c0-1.51-.58-2.43-1.73-2.43-1.67,0-3.11,2.18-3.11,5.07,0,1.51,.58,2.43,1.73,2.43,1.67,0,3.11-2.18,3.11-5.07Zm9.24-4.88l-.05,1.66h.1c1.18-1.05,2.6-1.96,4-1.96,1.83,0,2.53,.87,2.87,2.18,1.37-1.28,2.8-2.18,4.19-2.18,2.04,0,2.92,1.12,2.92,3.19,0,.56-.07,1.15-.2,1.76l-1.55,7.75h-3.42l1.47-7.32c.11-.5,.2-.85,.2-1.19,0-.85-.44-1.28-1.25-1.28-.55,0-1.38,.51-2.43,1.62l-1.63,8.17h-3.42l1.47-7.32c.11-.5,.2-.85,.2-1.19,0-.85-.44-1.28-1.21-1.28-.59,0-1.42,.51-2.47,1.62l-1.59,8.17h-3.42l2.44-12.4h2.78Zm17.31,0h3.42l-2.48,12.4h-3.42l2.48-12.4Zm.51-3.5c0-1.09,.94-2.03,2.14-2.03,.94,0,1.85,.59,1.85,1.66,0,1.17-.94,2.02-2.14,2.02-.94,0-1.85-.55-1.85-1.65Zm3.38,11.09c0-4.29,3.21-7.89,7.3-7.89,1.56,0,2.69,.76,3.33,1.53l-1.9,2.02c-.5-.53-.95-.81-1.64-.81-1.98,0-3.58,2.3-3.58,5.07,0,1.51,.7,2.43,2.1,2.43,.84,0,1.44-.39,1.97-.81l1.43,2.11c-.93,.69-2.21,1.44-4.15,1.44-2.76,0-4.85-1.86-4.85-5.11Zm18.02-11.48h3.43l-2.7,13.42h6.18l-.56,2.87h-9.61l3.26-16.29Zm10.75,3.89h3.42l-2.48,12.4h-3.42l2.48-12.4Zm.51-3.5c0-1.09,.94-2.03,2.14-2.03,.94,0,1.85,.59,1.85,1.66,0,1.17-.94,2.02-2.14,2.02-.94,0-1.85-.55-1.85-1.65Zm4.22,12.92c0-.53,.09-1.04,.18-1.56l1.08-5.19h-1.65l.51-2.53,1.83-.14,1.05-3.24h2.87l-.62,3.24h2.8l-.52,2.67h-2.89l-1.08,5.32c-.05,.3-.06,.56-.06,.83,0,.82,.4,1.21,1.3,1.21,.35,0,.69-.13,1.01-.29l.62,2.4c-.66,.25-1.64,.55-2.91,.55-2.5,0-3.51-1.38-3.51-3.28Zm14.28-9.72c2.96,0,4.04,2.08,4.04,4.65,0,1.17-.44,2.45-.63,2.82h-7.07c-.09,2.06,1.16,2.94,2.79,2.94,.77,0,1.66-.43,2.28-.87l1.21,2.16c-.99,.7-2.53,1.3-4.45,1.3-3,0-5.08-1.99-5.08-5.31,0-4.59,3.59-7.69,6.89-7.69Zm1.13,5.38c.06-.25,.11-.58,.11-.92,0-1-.42-1.83-1.66-1.83-1.18,0-2.39,.94-2.96,2.76h4.51Zm5.82-5.08h2.78l-.15,2.41h.1c.96-1.56,2.36-2.71,3.79-2.71,.63,0,1.02,.09,1.3,.24l-1.12,2.97c-.32-.18-.82-.2-1.23-.2-1.09,0-2.12,.76-3.09,2.51l-1.39,7.18h-3.42l2.44-12.4Zm6.71,8.15c0-4.72,3.2-8.45,6.62-8.45,1.12,0,2.21,.64,2.7,1.63h.06l.53-1.33h2.74l-2.48,12.4h-2.78l.05-1.62h-.06c-1.13,1.18-2.59,1.92-3.88,1.92-2.18,0-3.5-1.62-3.5-4.55Zm7.64-.08l.89-4.4c-.41-.83-1.08-1.19-1.67-1.19-1.72,0-3.32,2.27-3.32,5.22,0,1.52,.56,2.19,1.45,2.19,.83,0,1.85-.42,2.65-1.83Zm6.32,1.35c0-.53,.09-1.04,.18-1.56l1.08-5.19h-1.65l.51-2.53,1.83-.14,1.05-3.24h2.87l-.62,3.24h2.8l-.52,2.67h-2.89l-1.08,5.32c-.05,.3-.06,.56-.06,.83,0,.82,.4,1.21,1.3,1.21,.35,0,.69-.13,1.01-.29l.62,2.4c-.66,.25-1.64,.55-2.91,.55-2.5,0-3.51-1.38-3.51-3.28Zm17.52,2.98h-2.78l.05-1.67h-.1c-1.13,1.05-2.56,1.97-4.05,1.97-2.05,0-2.93-1.12-2.93-3.19,0-.56,.07-1.15,.2-1.76l1.55-7.75h3.42l-1.47,7.32c-.11,.5-.2,.85-.2,1.19,0,.85,.44,1.28,1.26,1.28,.73,0,1.49-.51,2.48-1.62l1.59-8.17h3.42l-2.44,12.4Zm5.02-12.4h2.78l-.15,2.41h.1c.96-1.56,2.36-2.71,3.79-2.71,.63,0,1.02,.09,1.3,.24l-1.12,2.97c-.32-.18-.82-.2-1.23-.2-1.09,0-2.12,.76-3.09,2.51l-1.39,7.18h-3.42l2.44-12.4Zm13.54-.3c2.96,0,4.04,2.08,4.04,4.65,0,1.17-.44,2.45-.63,2.82h-7.07c-.09,2.06,1.16,2.94,2.79,2.94,.77,0,1.66-.43,2.28-.87l1.21,2.16c-.99,.7-2.53,1.3-4.45,1.3-3,0-5.08-1.99-5.08-5.31,0-4.59,3.59-7.69,6.89-7.69Zm1.13,5.38c.06-.25,.11-.58,.11-.92,0-1-.42-1.83-1.66-1.83-1.18,0-2.39,.94-2.96,2.76h4.51Zm11.32-8.97h3.43l-1.33,6.69h.09l6.13-6.69h3.75l-5.93,6.7,3.63,9.59h-3.56l-2.61-7.44-2.47,2.66-.96,4.78h-3.43l3.26-16.29Zm13.3,3.89h2.78l-.05,1.66h.1c1.21-1.05,2.6-1.96,4.18-1.96,2.05,0,2.93,1.12,2.93,3.19,0,.56-.07,1.15-.2,1.76l-1.55,7.75h-3.42l1.47-7.32c.11-.5,.2-.85,.2-1.19,0-.85-.44-1.28-1.26-1.28-.77,0-1.53,.51-2.6,1.62l-1.59,8.17h-3.42l2.44-12.4Zm11.11,7.59c0-4.78,3.53-7.89,6.95-7.89,2.89,0,4.81,2.03,4.81,5.11,0,4.78-3.53,7.89-6.95,7.89-2.89,0-4.81-2.03-4.81-5.11Zm8.3-2.71c0-1.51-.58-2.43-1.73-2.43-1.67,0-3.11,2.18-3.11,5.07,0,1.51,.58,2.43,1.73,2.43,1.67,0,3.11-2.18,3.11-5.07Zm5.06-4.88h3.38l.02,6c-.02,1.2-.11,2.42-.15,3.65h.1c.46-1.24,.89-2.47,1.41-3.65l2.53-6h2.98l.21,6c.03,1.2-.01,2.42,0,3.65h.1c.46-1.24,.83-2.45,1.29-3.65l2.33-6h3.17l-5.29,12.4h-4.02l-.1-5.2c.02-1.15,0-2.33,.05-3.63h-.1c-.48,1.31-.86,2.48-1.31,3.63l-2.12,5.2h-3.89l-.58-12.4Zm17.19,10.28c0-.44,.05-.89,.18-1.51l2.77-13.87h3.42l-2.81,14c-.05,.25-.05,.36-.05,.48,0,.43,.22,.58,.47,.58,.14,0,.23,0,.44-.06l-.11,2.54c-.41,.14-1.02,.27-1.81,.27-1.78,0-2.51-.92-2.51-2.42Zm12.95-10.58c2.96,0,4.04,2.08,4.04,4.65,0,1.17-.44,2.45-.63,2.82h-7.07c-.09,2.06,1.16,2.94,2.79,2.94,.77,0,1.66-.43,2.28-.87l1.21,2.16c-.99,.7-2.53,1.3-4.45,1.3-3,0-5.08-1.99-5.08-5.31,0-4.59,3.59-7.69,6.89-7.69Zm1.13,5.38c.06-.25,.11-.58,.11-.92,0-1-.42-1.83-1.66-1.83-1.18,0-2.39,.94-2.96,2.76h4.51Zm13.31-6.24l.77-3.96h3.42l-3.53,17.51h-2.78l.05-1.62h-.06c-1.13,1.18-2.59,1.92-3.88,1.92-2.18,0-3.5-1.62-3.5-4.55,0-4.72,3.2-8.45,6.62-8.45,1.12,0,2.05,.59,2.53,1.51h.06l.29-2.36Zm-1.87,9.23l.89-4.4c-.41-.83-1.08-1.19-1.67-1.19-1.72,0-3.32,2.27-3.32,5.22,0,1.52,.56,2.19,1.45,2.19,.83,0,1.81-.42,2.65-1.83Zm4.3,7.91l1.48-2.28c.94,.73,2.02,1.3,3.19,1.3,1.63,0,2.71-.91,3.2-2.6l.64-2.2c-1.11,1.14-2.44,1.8-3.81,1.8-2.09,0-3.61-1.42-3.61-4.33,0-4.45,3.08-7.97,6.47-7.97,1.12,0,2.17,.64,2.65,1.63h.06l.53-1.33h2.78l-2.44,12.2c-.74,3.67-3.08,5.51-6.56,5.51-1.46,0-3.16-.59-4.58-1.73Zm8.65-8.37l.76-3.93c-.42-.83-1.04-1.19-1.63-1.19-1.7,0-3.17,2.06-3.17,4.74,0,1.35,.56,1.98,1.4,1.98s1.84-.38,2.63-1.6Zm12.29-7.91c2.96,0,4.04,2.08,4.04,4.65,0,1.17-.44,2.45-.63,2.82h-7.07c-.09,2.06,1.16,2.94,2.79,2.94,.77,0,1.66-.43,2.28-.87l1.21,2.16c-.99,.7-2.53,1.3-4.45,1.3-3,0-5.08-1.99-5.08-5.31,0-4.59,3.59-7.69,6.89-7.69Zm1.13,5.38c.06-.25,.11-.58,.11-.92,0-1-.42-1.83-1.66-1.83-1.18,0-2.39,.94-2.96,2.76h4.51Zm11.32-8.97h4.97c3.26,0,5.49,1.14,5.49,3.71,0,1.88-1.42,3.45-3.54,4.07l-.04,.1c1.81,.43,2.82,1.45,2.82,3.05,0,3.83-3.23,5.35-7.05,5.35h-5.9l3.26-16.29Zm2.81,13.66c2.31,0,3.58-.91,3.58-2.59,0-1.33-.88-2.08-2.63-2.08h-2.14l-.94,4.67h2.13Zm.91-7.01c2.28,0,3.23-.94,3.23-2.36,0-1.07-.81-1.67-2.59-1.67h-1.46l-.81,4.03h1.63Zm7.56,5.39c0-4.72,3.2-8.45,6.62-8.45,1.12,0,2.21,.64,2.7,1.63h.06l.53-1.33h2.74l-2.48,12.4h-2.78l.05-1.62h-.06c-1.13,1.18-2.59,1.92-3.88,1.92-2.18,0-3.5-1.62-3.5-4.55Zm7.64-.08l.89-4.4c-.41-.83-1.08-1.19-1.67-1.19-1.72,0-3.32,2.27-3.32,5.22,0,1.52,.56,2.19,1.45,2.19,.83,0,1.85-.42,2.65-1.83Zm4.55,2.22l1.99-1.64c.86,1.05,1.78,1.54,2.68,1.54s1.73-.51,1.73-1.18c0-.71-.72-1.04-2.13-1.83-1.41-.79-2.51-1.88-2.51-3.45,0-2.33,2.15-4.04,4.8-4.04,1.71,0,3.06,.84,4.06,1.89l-1.86,1.78c-.61-.62-1.33-1.13-2.21-1.13-.94,0-1.58,.53-1.58,1.18,0,.79,1.05,1.15,2.04,1.72,1.47,.8,2.6,1.78,2.6,3.48,0,2.44-2.16,4.08-5.16,4.08-1.5,0-3.42-.86-4.44-2.41Zm17.8-10.59c2.96,0,4.04,2.08,4.04,4.65,0,1.17-.44,2.45-.63,2.82h-7.07c-.09,2.06,1.16,2.94,2.79,2.94,.77,0,1.66-.43,2.28-.87l1.21,2.16c-.99,.7-2.53,1.3-4.45,1.3-3,0-5.08-1.99-5.08-5.31,0-4.59,3.59-7.69,6.89-7.69Zm1.13,5.38c.06-.25,.11-.58,.11-.92,0-1-.42-1.83-1.66-1.83-1.18,0-2.39,.94-2.96,2.76h4.51Z"/></svg>