<svg xmlns="http://www.w3.org/2000/svg" xmlns:xlink="http://www.w3.org/1999/xlink" viewBox="0 0 88.85 104.73"><defs><style>.cls-1{fill:#fff;}.cls-2{fill:url(#linear-gradient);}.cls-3{fill:url(#linear-gradient-2);}.cls-4{fill:url(#linear-gradient-3);}.cls-5{fill:url(#linear-gradient-4);}</style><linearGradient id="linear-gradient" x1="72.3" y1="33.74" x2="42.95" y2="102.88" gradientUnits="userSpaceOnUse"><stop offset="0" stop-color="#99d7e2"/><stop offset="1" stop-color="#1c75bc"/></linearGradient><linearGradient id="linear-gradient-2" x1="71.95" y1="43.89" x2="66.27" y2="78.51" xlink:href="#linear-gradient"/><linearGradient id="linear-gradient-3" x1="64.63" y1="43.26" x2="56.61" y2="79.57" xlink:href="#linear-gradient"/><linearGradient id="linear-gradient-4" x1="54.78" y1="43.79" x2="47.11" y2="77.67" xlink:href="#linear-gradient"/></defs><g id="Layer_2" data-name="Layer 2"><g id="Layer_1-2" data-name="Layer 1"><path class="cls-1" d="M19.69,0H31.36L13.68,93.94H61.15l2.34,10.46H0Z"/><path class="cls-1" d="M88.75,24.09A2.59,2.59,0,0,0,88.17,23L68.58,1,68.39.79a2,2,0,0,0-.33-.25,2.4,2.4,0,0,0-1.3-.38H34.08L32.9,5.46H63.68L60,24.29a2.76,2.76,0,0,0,.5,2.21,2.46,2.46,0,0,0,1.94,1H83.27L80.45,41.57a29.7,29.7,0,0,1,3.84,6.34l.27-1.35,4.23-21.1v-.08A2.68,2.68,0,0,0,88.75,24.09ZM65.49,22.18,68.22,8.31,80.56,22.18Z"/><path class="cls-2" d="M70.89,36.85c-12.21-6.67-27.27-1.57-33.57,11.38a27.69,27.69,0,0,0-1.59,20.16A25.86,25.86,0,0,0,48,83.83a23.44,23.44,0,0,0,15,2.69l4.07,18.21h4L66.89,85.57l.16,0A25.22,25.22,0,0,0,81.62,72.46C87.91,59.5,83.1,43.53,70.89,36.85ZM65.83,81.48c-.58.2-1.17.36-1.75.51a19.43,19.43,0,0,1-2,.36,19.68,19.68,0,0,1-12.23-2.28,21.77,21.77,0,0,1-10.34-13,23.28,23.28,0,0,1,1.33-16.93,20.83,20.83,0,0,1,18.63-12,19.78,19.78,0,0,1,9.56,2.47c10.25,5.61,14.29,19,9,29.88a21.09,21.09,0,0,1-12,10.9Z"/><path class="cls-3" d="M71.22,75.42l-1.91.48c-.74-3.07-3.25-4.38-6.15-5.47a.47.47,0,0,0,.1-.1c.45-.49.93-1,1.39-1.53C67.59,70,70.34,71.71,71.22,75.42Z"/><path class="cls-4" d="M64.28,72a10.08,10.08,0,0,1,2.47,1.51l-8.39,2.14a6.16,6.16,0,0,0-.11,3l-1.91.48c-.78-3.7.93-6.54,3-9l.35-.42.37-.41,1.09-1.19.43-.45.38-.42.37-.41a20.17,20.17,0,0,0,1.84-2.33l-4.74,1.21A9.78,9.78,0,0,1,57,64.23l8.4-2.14A6.52,6.52,0,0,0,65.61,60l-10.9,2.79c1,2.43,3.26,3.59,5.86,4.57l-.1.09c-.45.49-.92,1-1.39,1.53-3-1.2-5.73-2.93-6.59-6.69s.88-6.65,3-9.16l.36-.41.36-.41c.37-.41.73-.8,1.1-1.19l.42-.46c.13-.13.26-.27.38-.41s.25-.28.38-.41c2.14-2.39,3.82-4.79,3.11-7.93,0-.06,0-.11,0-.16l1.85-.47a.67.67,0,0,1,.06.15c.86,3.77-.87,6.65-3,9.14-.11.14-.23.27-.35.41l-.37.42c-.36.4-.73.8-1.09,1.18-.14.16-.29.31-.43.46s-.25.28-.38.41l-.37.42a19.35,19.35,0,0,0-1.84,2.33L60.41,55a9.51,9.51,0,0,1,2.47,1.51l-8.4,2.14a6.23,6.23,0,0,0-.23,2.12l10.9-2.78c-1-2.44-3.26-3.59-5.86-4.57l.1-.09c.45-.49.92-1,1.39-1.53,3,1.2,5.73,2.92,6.59,6.69s-.88,6.65-3,9.15l-.72.83c-.37.4-.74.79-1.1,1.19l-.42.45-.38.42c-.13.13-.26.27-.38.41a21.23,21.23,0,0,0-1.84,2.32Z"/><path class="cls-5" d="M55.2,51.89c-3-1.2-5.72-2.93-6.58-6.71a.79.79,0,0,1,0-.22l1.83-.46a.84.84,0,0,1,.08.2A6,6,0,0,0,52,47.47l8.39-2.15a10.58,10.58,0,0,1-1.55,2.54l-4.74,1.2a18.58,18.58,0,0,0,2.63,1.19l-.09.11C56.15,50.85,55.67,51.36,55.2,51.89Z"/></g></g></svg>