<svg width="20" height="20" viewBox="0 0 20 20" fill="none" xmlns="http://www.w3.org/2000/svg">
<path d="M8.83301 0C13.7115 0 17.666 3.95449 17.666 8.83301C17.666 10.9723 16.905 12.9335 15.6396 14.4619L19.4229 18.2441C19.7479 18.5696 19.7482 19.0976 19.4229 19.4229C19.0975 19.7481 18.5696 19.7479 18.2441 19.4229L14.4619 15.6396C12.9335 16.905 10.9723 17.666 8.83301 17.666C3.95449 17.666 0 13.7115 0 8.83301C0 3.95449 3.95449 0 8.83301 0ZM8.83301 1.66602C4.87497 1.66602 1.66602 4.87497 1.66602 8.83301C1.66602 12.791 4.87497 16 8.83301 16C12.791 16 16 12.791 16 8.83301C16 4.87497 12.791 1.66602 8.83301 1.66602Z" fill="currentColor"/>
</svg>
