<svg width="16" height="16" viewBox="0 0 16 16" fill="none" xmlns="http://www.w3.org/2000/svg">
<mask id="mask0_2975_15426" style="mask-type:alpha" maskUnits="userSpaceOnUse" x="-3" y="-3" width="22" height="22">
<rect x="-3" y="-3" width="22" height="22" fill="#D9D9D9"/>
</mask>
<g mask="url(#mask0_2975_15426)">
<path d="M7.98104 15.7917C5.99615 15.7917 4.26624 15.1383 2.79133 13.8314C1.31641 12.5246 0.467349 10.8863 0.244141 8.91671H1.64733C1.87879 10.4998 2.59127 11.8122 3.78477 12.854C4.97811 13.8958 6.37687 14.4167 7.98104 14.4167C9.76854 14.4167 11.2849 13.7941 12.53 12.549C13.7751 11.3039 14.3977 9.78754 14.3977 8.00004C14.3977 6.21254 13.7751 4.69622 12.53 3.45108C11.2849 2.20594 9.76854 1.58337 7.98104 1.58337C6.97973 1.58337 6.04137 1.80582 5.16595 2.25071C4.29038 2.69544 3.53643 3.30739 2.90408 4.08656H5.30162V5.46156H0.647703V0.807645H2.0227V2.97946C2.76658 2.1016 3.65743 1.42028 4.69525 0.935519C5.73291 0.450756 6.82818 0.208374 7.98104 0.208374C9.06224 0.208374 10.0753 0.412868 11.0202 0.821854C11.965 1.23084 12.7888 1.78672 13.4916 2.4895C14.1944 3.19228 14.7502 4.01613 15.1592 4.96106C15.5682 5.90584 15.7727 6.91883 15.7727 8.00004C15.7727 9.08125 15.5682 10.0942 15.1592 11.039C14.7502 11.9839 14.1944 12.8078 13.4916 13.5106C12.7888 14.2134 11.965 14.7692 11.0202 15.1782C10.0753 15.5872 9.06224 15.7917 7.98104 15.7917ZM10.7329 11.6915L7.32012 8.27848V3.41671H8.69489V7.7216L11.6988 10.7253L10.7329 11.6915Z" fill="#969696"/>
</g>
</svg>
