<svg width="24" height="24" viewBox="0 0 24 24" fill="none" xmlns="http://www.w3.org/2000/svg">
<path d="M15 4.5C15 5.88071 16.1193 7 17.5 7C18.8807 7 20 5.88071 20 4.5C20 3.11929 18.8807 2 17.5 2" stroke="#16A34A" stroke-width="1.5" stroke-linecap="round"/>
<path d="M5.5 14C6.88071 14 8 12.8807 8 11.5C8 10.1193 6.88071 9 5.5 9C4.11929 9 3 10.1193 3 11.5" stroke="#16A34A" stroke-width="1.5" stroke-linecap="round"/>
<path d="M15 6L8 10" stroke="#16A34A" stroke-width="1.5" stroke-linecap="round" stroke-linejoin="round"/>
<path d="M7.5 13.5L15 18" stroke="#16A34A" stroke-width="1.5" stroke-linecap="round" stroke-linejoin="round"/>
<path d="M20 19.5C20 20.8807 18.8807 22 17.5 22C16.1193 22 15 20.8807 15 19.5C15 18.1193 16.1193 17 17.5 17" stroke="#16A34A" stroke-width="1.5" stroke-linecap="round"/>
</svg>
