<svg width="16" height="16" viewBox="0 0 16 16" fill="none" xmlns="http://www.w3.org/2000/svg">
<mask id="mask0_2577_10911" style="mask-type:alpha" maskUnits="userSpaceOnUse" x="0" y="0" width="16" height="16">
<rect width="16" height="16" fill="#D9D9D9"/>
</mask>
<g mask="url(#mask0_2577_10911)">
<path d="M2.33334 13.6663V12.6663H9.78851V13.6663H2.33334ZM2.33334 11.2048V10.2048H13.6667V11.2048H2.33334ZM3.53851 8.74334C3.20173 8.74334 2.91668 8.62667 2.68334 8.39334C2.45001 8.16001 2.33334 7.87495 2.33334 7.53817V3.53817C2.33334 3.2014 2.45001 2.91634 2.68334 2.68301C2.91668 2.44967 3.20173 2.33301 3.53851 2.33301H12.4615C12.7983 2.33301 13.0833 2.44967 13.3167 2.68301C13.55 2.91634 13.6667 3.2014 13.6667 3.53817V7.53817C13.6667 7.87495 13.55 8.16001 13.3167 8.39334C13.0833 8.62667 12.7983 8.74334 12.4615 8.74334H3.53851ZM3.53851 7.74334H12.4615C12.5214 7.74334 12.5706 7.72412 12.609 7.68567C12.6475 7.64712 12.6667 7.59795 12.6667 7.53817V3.53817C12.6667 3.47829 12.6475 3.42912 12.609 3.39067C12.5706 3.35223 12.5214 3.33301 12.4615 3.33301H3.53851C3.47862 3.33301 3.42945 3.35223 3.39101 3.39067C3.35257 3.42912 3.33334 3.47829 3.33334 3.53817V7.53817C3.33334 7.59795 3.35257 7.64712 3.39101 7.68567C3.42945 7.72412 3.47862 7.74334 3.53851 7.74334Z" fill="#97A7BD"/>
</g>
</svg>
